<svg width="450" height="450" viewBox="0 0 450 450" fill="none" xmlns="http://www.w3.org/2000/svg">
<g filter="url(#filter0_d_437_170)">
<path fill-rule="evenodd" clip-rule="evenodd" d="M225.169 62C294.297 62 350 117.774 350 187C350 256.226 294.297 312 225.169 312C156.04 312 100 256.226 100 187C100 117.774 156.04 62 225.169 62ZM201.865 225.772C182.645 241.302 158.861 251.617 132.792 254.527C151.153 279.844 179.493 297.595 212.247 301.275C204.435 284.795 200.071 266.431 200.071 247.083C200.071 239.825 200.686 232.706 201.865 225.772ZM248.068 225.773C249.247 232.707 249.862 239.825 249.862 247.083C249.862 266.428 245.5 284.789 237.69 301.268C270.422 297.57 298.756 279.825 317.119 254.524C291.06 251.611 267.283 241.298 248.068 225.773ZM224.966 205.077C219.599 218.054 216.646 232.228 216.646 247.083C216.646 261.936 219.599 276.11 224.966 289.087C230.334 276.109 233.287 261.936 233.287 247.083C233.287 232.228 230.334 218.055 224.966 205.077ZM123.535 134.659C115.312 150.308 110.671 168.011 110.671 186.655C110.671 205.204 115.147 222.925 123.112 238.669C161.898 236.903 195.63 216.562 215.224 186.655C195.701 156.856 162.142 136.553 123.535 134.659ZM326.884 134.637C288.073 136.384 254.314 156.731 234.709 186.654C254.301 216.558 288.028 236.898 326.807 238.668C334.781 222.924 339.263 205.203 339.263 186.655C339.263 167.978 334.82 150.274 326.884 134.637ZM225.529 84.2235C219.927 97.2832 216.646 111.462 216.646 126.227C216.646 141.081 219.599 155.254 224.966 168.232C230.334 155.254 233.287 141.081 233.287 126.227C233.287 111.278 230.662 97.1176 225.529 84.2235ZM212.081 73.708C179.939 77.5744 151.943 94.554 133.559 118.87C159.326 121.895 182.833 132.16 201.865 147.536C200.686 140.603 200.071 133.484 200.071 126.227C200.071 107.426 204.624 89.6561 212.081 73.708ZM239.027 73.5859C246.252 89.7641 249.862 107.6 249.862 126.227C249.862 133.484 249.247 140.602 248.068 147.536C267.286 132.009 291.068 121.695 317.132 118.783C299.093 94.2241 271.368 77.1988 239.027 73.5859Z" fill="url(#paint0_linear_437_170)"/>
</g>
<defs>
<filter id="filter0_d_437_170" x="0" y="0" width="450" height="450" filterUnits="userSpaceOnUse" color-interpolation-filters="sRGB">
<feFlood flood-opacity="0" result="BackgroundImageFix"/>
<feColorMatrix in="SourceAlpha" type="matrix" values="0 0 0 0 0 0 0 0 0 0 0 0 0 0 0 0 0 0 127 0" result="hardAlpha"/>
<feOffset dy="38"/>
<feGaussianBlur stdDeviation="50"/>
<feComposite in2="hardAlpha" operator="out"/>
<feColorMatrix type="matrix" values="0 0 0 0 0 0 0 0 0 0 0 0 0 0 0 0 0 0 0.25 0"/>
<feBlend mode="normal" in2="BackgroundImageFix" result="effect1_dropShadow_437_170"/>
<feBlend mode="normal" in="SourceGraphic" in2="effect1_dropShadow_437_170" result="shape"/>
</filter>
<linearGradient id="paint0_linear_437_170" x1="157.5" y1="85.125" x2="350" y2="312" gradientUnits="userSpaceOnUse">
<stop stop-color="#FFE3CB"/>
<stop offset="1" stop-color="#2E415A"/>
</linearGradient>
</defs>
</svg>
