<svg fill="none" height="450" viewBox="0 0 450 450" width="450" xmlns="http://www.w3.org/2000/svg" xmlns:xlink="http://www.w3.org/1999/xlink"><filter id="a" color-interpolation-filters="sRGB" filterUnits="userSpaceOnUse" height="450" width="450" x="0" y="0"><feFlood flood-opacity="0" result="BackgroundImageFix"/><feColorMatrix in="SourceAlpha" result="hardAlpha" type="matrix" values="0 0 0 0 0 0 0 0 0 0 0 0 0 0 0 0 0 0 127 0"/><feOffset dy="38"/><feGaussianBlur stdDeviation="50"/><feComposite in2="hardAlpha" operator="out"/><feColorMatrix type="matrix" values="0 0 0 0 0 0 0 0 0 0 0 0 0 0 0 0 0 0 0.25 0"/><feBlend in2="BackgroundImageFix" mode="normal" result="effect1_dropShadow_437_170"/><feBlend in="SourceGraphic" in2="effect1_dropShadow_437_170" mode="normal" result="shape"/></filter><linearGradient id="b" gradientUnits="userSpaceOnUse" x1="157.5" x2="350" y1="85.125" y2="312"><stop offset="0" stop-color="#ffe3cb"/><stop offset="1" stop-color="#2e415a"/></linearGradient><g filter="url(#a)"><path clip-rule="evenodd" d="m225.169 62c69.128 0 124.831 55.774 124.831 125s-55.703 125-124.831 125c-69.129 0-125.169-55.774-125.169-125s56.04-125 125.169-125zm-23.304 163.772c-19.22 15.53-43.004 25.845-69.073 28.755 18.361 25.317 46.701 43.068 79.455 46.748-7.812-16.48-12.176-34.844-12.176-54.192 0-7.258.615-14.377 1.794-21.311zm46.203.001c1.179 6.934 1.794 14.052 1.794 21.31 0 19.345-4.362 37.706-12.172 54.185 32.732-3.698 61.066-21.443 79.429-46.744-26.059-2.913-49.836-13.226-69.051-28.751zm-23.102-20.696c-5.367 12.977-8.32 27.151-8.32 42.006 0 14.853 2.953 29.027 8.32 42.004 5.368-12.978 8.321-27.151 8.321-42.004 0-14.855-2.953-29.028-8.321-42.006zm-101.431-70.418c-8.223 15.649-12.864 33.352-12.864 51.996 0 18.549 4.476 36.27 12.441 52.014 38.786-1.766 72.518-22.107 92.112-52.014-19.523-29.799-53.082-50.102-91.689-51.996zm203.349-.022c-38.811 1.747-72.57 22.094-92.175 52.017 19.592 29.904 53.319 50.244 92.098 52.014 7.974-15.744 12.456-33.465 12.456-52.013 0-18.677-4.443-36.381-12.379-52.018zm-101.355-50.4135c-5.602 13.0597-8.883 27.2385-8.883 42.0035 0 14.854 2.953 29.027 8.32 42.005 5.368-12.978 8.321-27.151 8.321-42.005 0-14.949-2.625-29.1094-7.758-42.0035zm-13.448-10.5155c-32.142 3.8664-60.138 20.846-78.522 45.162 25.767 3.025 49.274 13.29 68.306 28.666-1.179-6.933-1.794-14.052-1.794-21.309 0-18.801 4.553-36.5709 12.01-52.519zm26.946-.1221c7.225 16.1782 10.835 34.0141 10.835 52.6411 0 7.257-.615 14.375-1.794 21.309 19.218-15.527 43-25.841 69.064-28.753-18.039-24.5589-45.764-41.5842-78.105-45.1971z" fill="url(#b)" fill-rule="evenodd"/></g></svg>