<svg width="1440" height="1024" viewBox="0 0 1440 1024" fill="none" xmlns="http://www.w3.org/2000/svg">
<path d="M361.725 265.123C427.234 282.676 494.57 243.8 512.123 178.29C529.676 112.781 490.8 45.4456 425.29 27.8924M361.725 265.123C296.216 247.57 257.339 180.234 274.893 114.725C292.446 49.2154 359.781 10.3393 425.29 27.8924M361.725 265.123C296.216 247.57 228.88 286.446 211.327 351.955C193.774 417.464 232.65 484.8 298.159 502.353C363.669 519.906 431.004 481.03 448.557 415.521C466.11 350.011 427.234 282.676 361.725 265.123ZM361.725 265.123C344.172 199.613 276.836 160.737 211.327 178.29C145.818 195.844 106.941 263.179 124.495 328.688M361.725 265.123C379.278 330.632 340.402 397.968 274.893 415.521C209.383 433.074 142.048 394.198 124.495 328.688M425.29 27.8924C490.8 45.4456 558.135 6.56951 575.688 -58.9398C593.242 -124.449 554.366 -191.785 488.856 -209.338C423.347 -226.891 356.011 -188.015 338.458 -122.505C320.905 -56.9961 359.781 10.3393 425.29 27.8924ZM425.29 27.8924C442.844 93.4018 510.179 132.278 575.688 114.725C641.198 97.1716 680.074 29.8361 662.521 -35.6732M425.29 27.8924C407.737 -37.6169 446.613 -104.952 512.123 -122.506C577.632 -140.059 644.967 -101.183 662.521 -35.6732M329.942 383.738C395.451 401.291 462.787 362.415 480.34 296.906C497.893 231.396 459.017 164.061 393.508 146.508M329.942 383.738C264.433 366.185 225.557 298.849 243.11 233.34C260.663 167.831 327.998 128.954 393.508 146.508M329.942 383.738C264.433 366.185 197.097 405.061 179.544 470.57C161.991 536.079 200.867 603.415 266.376 620.968C331.886 638.521 399.221 599.645 416.774 534.136C434.327 468.626 395.451 401.291 329.942 383.738ZM329.942 383.738C312.389 318.229 245.053 279.352 179.544 296.906C114.035 314.459 75.1586 381.794 92.7117 447.304C110.265 512.813 177.6 551.689 243.11 534.136C308.619 516.583 347.495 449.247 329.942 383.738ZM393.508 146.508C375.954 80.9982 308.619 42.1221 243.11 59.6753C177.6 77.2284 138.724 144.564 156.277 210.073M393.508 146.508C411.061 212.017 372.185 279.352 306.675 296.905C241.166 314.459 173.831 275.583 156.277 210.073M393.508 146.508C441.464 98.5514 441.464 20.7989 393.508 -27.1573C345.552 -75.1134 267.799 -75.1134 219.843 -27.1572M393.508 146.508C345.551 194.464 267.799 194.464 219.843 146.507C171.887 98.5512 171.887 20.7989 219.843 -27.1572M393.508 146.508C459.017 164.061 526.352 125.185 543.906 59.6753C561.459 -5.83401 522.583 -73.1695 457.073 -90.7226M393.508 146.508C327.998 128.954 289.122 61.619 306.675 -3.89035C324.228 -69.3997 391.564 -108.276 457.073 -90.7226M393.508 146.508C411.061 212.017 478.396 250.893 543.905 233.34C609.415 215.787 648.291 148.451 630.738 82.942M393.508 146.508C375.954 80.9982 414.83 13.6629 480.34 -3.89032C545.849 -21.4435 613.185 17.4327 630.738 82.942M393.508 146.508C345.551 194.464 345.551 272.216 393.507 320.172C441.464 368.128 519.216 368.128 567.172 320.172M393.508 146.508C441.464 98.5514 519.216 98.5514 567.172 146.508C615.128 194.464 615.129 272.216 567.172 320.172M448.557 351.955C383.048 334.402 315.712 373.278 298.159 438.787C280.606 504.297 319.482 571.632 384.992 589.185C450.501 606.738 517.836 567.862 535.39 502.353C552.943 436.844 514.067 369.508 448.557 351.955ZM448.557 351.955C400.601 399.911 400.601 477.664 448.557 525.62C496.513 573.576 574.265 573.576 622.222 525.62C670.178 477.664 670.178 399.911 622.222 351.955C574.265 303.999 496.513 303.999 448.557 351.955ZM243.11 296.906C177.6 279.352 110.265 318.228 92.7117 383.738C75.1585 449.247 114.035 516.583 179.544 534.136C245.053 551.689 312.389 512.813 329.942 447.303C347.495 381.794 308.619 314.459 243.11 296.906ZM243.11 296.906C225.557 231.396 158.221 192.52 92.7117 210.073C27.2024 227.626 -11.6738 294.962 5.87939 360.471C23.4326 425.981 90.7681 464.857 156.277 447.304C221.787 429.75 260.663 362.415 243.11 296.906ZM416.774 470.57C351.265 453.017 283.93 491.893 266.376 557.402C248.823 622.912 287.699 690.247 353.209 707.8C418.718 725.354 486.054 686.477 503.607 620.968C521.16 555.459 482.284 488.123 416.774 470.57ZM416.774 470.57C482.284 488.123 549.619 449.247 567.172 383.738C584.726 318.229 545.849 250.893 480.34 233.34M416.774 470.57C351.265 453.017 312.389 385.682 329.942 320.172C347.495 254.663 414.831 215.787 480.34 233.34M211.327 415.521C145.818 397.967 78.482 436.844 60.9288 502.353C43.3757 567.862 82.2518 635.198 147.761 652.751C213.271 670.304 280.606 631.428 298.159 565.919C315.712 500.409 276.836 433.074 211.327 415.521ZM211.327 415.521C193.774 350.011 126.438 311.135 60.9289 328.688C-4.58044 346.242 -43.4566 413.577 -25.9034 479.086C-8.35021 544.596 58.9852 583.472 124.495 565.919C190.004 548.365 228.88 481.03 211.327 415.521ZM480.34 233.34C432.384 281.296 432.384 359.048 480.34 407.005C528.296 454.961 606.048 454.961 654.004 407.005C701.961 359.048 701.961 281.296 654.004 233.34C606.048 185.384 528.296 185.384 480.34 233.34ZM567.172 320.172C501.663 302.619 434.328 341.495 416.774 407.005C399.221 472.514 438.097 539.849 503.607 557.402C569.116 574.956 636.451 536.08 654.005 470.57C671.558 405.061 632.682 337.725 567.172 320.172ZM567.172 320.172C519.216 368.128 519.216 445.881 567.172 493.837C615.128 541.793 692.881 541.793 740.837 493.837C788.793 445.881 788.793 368.128 740.837 320.172C692.881 272.216 615.129 272.216 567.172 320.172ZM535.39 438.787C469.88 421.234 402.545 460.11 384.992 525.62C367.438 591.129 406.315 658.464 471.824 676.018C537.333 693.571 604.669 654.695 622.222 589.185C639.775 523.676 600.899 456.341 535.39 438.787ZM535.39 438.787C487.433 486.744 487.433 564.496 535.389 612.452C583.345 660.408 661.098 660.408 709.054 612.452C757.01 564.496 757.01 486.744 709.054 438.787C661.098 390.831 583.346 390.831 535.39 438.787ZM156.277 210.073C138.724 144.564 71.3887 105.688 5.87939 123.241C-59.6299 140.794 -98.5061 208.13 -80.9529 273.639C-63.3997 339.148 3.93573 378.024 69.4451 360.471C134.954 342.918 173.831 275.583 156.277 210.073ZM156.277 210.073C204.234 162.117 204.234 84.3646 156.278 36.4085C108.321 -11.5477 30.5691 -11.5477 -17.3871 36.4084C-65.3432 84.3646 -65.3432 162.117 -17.3871 210.073C30.5691 258.029 108.321 258.029 156.277 210.073ZM274.893 178.29C257.339 112.781 190.004 73.9049 124.495 91.4581C58.9852 109.011 20.1091 176.347 37.6622 241.856C55.2154 307.365 122.551 346.242 188.06 328.688C253.57 311.135 292.446 243.8 274.893 178.29ZM274.893 178.29C322.849 130.334 322.849 52.5818 274.893 4.62561C226.937 -43.3306 149.184 -43.3305 101.228 4.62564M274.893 178.29C226.936 226.247 149.184 226.246 101.228 178.29C53.2719 130.334 53.2719 52.5818 101.228 4.62564M188.06 91.4581C170.507 25.9487 103.172 -12.9274 37.6622 4.62573C-27.8471 22.1789 -66.7233 89.5144 -49.1701 155.024C-31.6169 220.533 35.7186 259.409 101.228 241.856C166.737 224.303 205.613 156.967 188.06 91.4581ZM188.06 91.4581C236.016 43.5019 236.017 -34.2505 188.06 -82.2067C140.104 -130.163 62.352 -130.163 14.3958 -82.2067C-33.5603 -34.2505 -33.5603 43.5018 14.3958 91.4579C62.352 139.414 140.104 139.414 188.06 91.4581ZM124.495 328.688C106.941 263.179 39.6059 224.303 -25.9034 241.856C-91.4128 259.409 -130.289 326.745 -112.736 392.254C-95.1825 457.763 -27.8471 496.64 37.6622 479.086C103.172 461.533 142.048 394.198 124.495 328.688ZM69.4451 123.241C51.8919 57.7315 -15.4436 18.8554 -80.9529 36.4086C-146.462 53.9617 -185.338 121.297 -167.785 186.807C-150.232 252.316 -82.8965 291.192 -17.3872 273.639C48.1221 256.086 86.9982 188.75 69.4451 123.241ZM69.4451 123.241C117.401 75.2847 117.401 -2.4677 69.4453 -50.4239C21.4891 -98.38 -56.2632 -98.38 -104.219 -50.4239C-152.176 -2.4677 -152.176 75.2846 -104.219 123.241C-56.2632 171.197 21.4889 171.197 69.4451 123.241ZM219.843 -27.1572C267.799 -75.1134 267.799 -152.866 219.843 -200.822C171.887 -248.778 94.1348 -248.778 46.1786 -200.822C-1.77751 -152.866 -1.77751 -75.1134 46.1786 -27.1573C94.1348 20.7989 171.887 20.7989 219.843 -27.1572ZM338.458 -58.9401C386.415 -106.896 386.415 -184.649 338.458 -232.605C290.502 -280.561 212.75 -280.561 164.794 -232.605C116.838 -184.649 116.838 -106.896 164.794 -58.9401C212.75 -10.9839 290.502 -10.9839 338.458 -58.9401ZM338.458 -58.9401C403.968 -41.3869 471.303 -80.2628 488.856 -145.772C506.409 -211.281 467.533 -278.617 402.024 -296.17C336.514 -313.723 269.179 -274.847 251.626 -209.338C234.073 -143.828 272.949 -76.4933 338.458 -58.9401ZM101.228 4.62564C149.184 -43.3305 149.184 -121.083 101.228 -169.039C53.2719 -216.995 -24.4804 -216.995 -72.4365 -169.039C-120.393 -121.083 -120.393 -43.3306 -72.4365 4.62561C-24.4804 52.5818 53.2719 52.5818 101.228 4.62564ZM457.073 -90.7226C522.583 -73.1695 589.918 -112.046 607.471 -177.555C625.024 -243.064 586.148 -310.4 520.639 -327.953C455.13 -345.506 387.794 -306.63 370.241 -241.121C352.688 -175.611 391.564 -108.276 457.073 -90.7226ZM457.073 -90.7226C474.626 -25.2133 541.962 13.6627 607.471 -3.89044C672.98 -21.4436 711.857 -88.7791 694.303 -154.288C676.75 -219.798 609.415 -258.674 543.905 -241.121C478.396 -223.568 439.52 -156.232 457.073 -90.7226ZM543.906 -3.89032C609.415 13.6629 676.75 -25.2133 694.304 -90.7226C711.857 -156.232 672.981 -223.567 607.471 -241.121C541.962 -258.674 474.627 -219.798 457.073 -154.288C439.52 -88.779 478.396 -21.4435 543.906 -3.89032ZM543.906 -3.89032C561.459 61.619 628.794 100.495 694.303 82.942C759.813 65.3888 798.689 -1.94669 781.136 -67.456C763.583 -132.965 696.247 -171.842 630.738 -154.288C565.228 -136.735 526.352 -69.3997 543.906 -3.89032ZM575.688 -122.505C641.198 -104.952 708.533 -143.828 726.086 -209.338C743.64 -274.847 704.763 -342.183 639.254 -359.736C573.745 -377.289 506.409 -338.413 488.856 -272.903C471.303 -207.394 510.179 -140.059 575.688 -122.505ZM575.688 -122.505C593.242 -56.9961 660.577 -18.1201 726.086 -35.6732C791.596 -53.2264 830.472 -120.562 812.919 -186.071C795.365 -251.581 728.03 -290.457 662.521 -272.904C597.011 -255.35 558.135 -188.015 575.688 -122.505ZM630.738 82.942C648.291 148.451 715.626 187.327 781.136 169.774C846.645 152.221 885.521 84.8856 867.968 19.3763C850.415 -46.133 783.079 -85.0092 717.57 -67.456C652.061 -49.9028 613.185 17.4327 630.738 82.942ZM630.738 82.942C582.782 130.898 582.782 208.65 630.738 256.607C678.694 304.563 756.446 304.563 804.402 256.607C852.359 208.65 852.359 130.898 804.402 82.9419C756.446 34.9858 678.694 34.9858 630.738 82.942ZM512.123 114.725C529.676 180.234 597.011 219.11 662.521 201.557C728.03 184.004 766.906 116.668 749.353 51.1591C731.8 -14.3502 664.464 -53.2263 598.955 -35.6732C533.446 -18.12 494.569 49.2155 512.123 114.725ZM512.123 114.725C464.166 162.681 464.166 240.433 512.123 288.389C560.079 336.346 637.831 336.346 685.787 288.389M512.123 114.725C560.079 66.7686 637.831 66.7686 685.787 114.725C733.743 162.681 733.743 240.433 685.787 288.389M598.955 201.557C616.508 267.066 683.844 305.943 749.353 288.389C814.862 270.836 853.738 203.501 836.185 137.991C818.632 72.4821 751.297 33.606 685.787 51.1591C620.278 68.7123 581.402 136.048 598.955 201.557ZM598.955 201.557C550.999 249.513 550.999 327.266 598.955 375.222C646.911 423.178 724.663 423.178 772.62 375.222C820.576 327.266 820.576 249.513 772.62 201.557C724.663 153.601 646.911 153.601 598.955 201.557ZM662.521 -35.6732C680.074 29.8361 747.409 68.7123 812.919 51.1591C878.428 33.6059 917.304 -33.7295 899.751 -99.2388C882.198 -164.748 814.862 -203.624 749.353 -186.071C683.844 -168.518 644.967 -101.183 662.521 -35.6732ZM717.57 169.774C735.123 235.284 802.459 274.16 867.968 256.607C933.477 239.053 972.354 171.718 954.8 106.209C937.247 40.6993 869.912 1.82314 804.402 19.3763C738.893 36.9295 700.017 104.265 717.57 169.774ZM717.57 169.774C669.614 217.73 669.614 295.483 717.57 343.439C765.526 391.395 843.279 391.395 891.235 343.439C939.191 295.483 939.191 217.73 891.235 169.774C843.279 121.818 765.526 121.818 717.57 169.774ZM685.787 288.389C637.831 336.346 637.831 414.098 685.787 462.054C733.743 510.01 811.496 510.01 859.452 462.054C907.408 414.098 907.408 336.346 859.452 288.389C811.496 240.433 733.743 240.433 685.787 288.389ZM1405.16 1308.35C1601.69 1361.01 1803.69 1244.38 1856.35 1047.86C1909.01 851.328 1792.38 649.322 1595.86 596.662M1405.16 1308.35C1470.67 1325.91 1538 1287.03 1555.56 1221.52C1573.11 1156.01 1534.23 1088.68 1468.72 1071.12M1405.16 1308.35C1339.65 1290.8 1300.77 1223.46 1318.33 1157.95C1335.88 1092.45 1403.22 1053.57 1468.72 1071.12M1595.86 596.662C1530.35 579.109 1463.01 617.985 1445.46 683.495C1427.9 749.004 1466.78 816.339 1532.29 833.892M1595.86 596.662C1661.37 614.215 1700.24 681.551 1682.69 747.06C1665.14 812.57 1597.8 851.446 1532.29 833.892M1468.72 1071.12C1534.23 1088.68 1601.57 1049.8 1619.12 984.29C1636.68 918.781 1597.8 851.446 1532.29 833.892M1468.72 1071.12C1403.22 1053.57 1364.34 986.234 1381.89 920.725C1399.45 855.215 1466.78 816.339 1532.29 833.892M1468.72 1071.12C1451.17 1005.61 1383.84 966.737 1318.33 984.29C1252.82 1001.84 1213.94 1069.18 1231.49 1134.69M1468.72 1071.12C1486.28 1136.63 1447.4 1203.97 1381.89 1221.52C1316.38 1239.07 1249.05 1200.2 1231.49 1134.69M1532.29 833.892C1549.84 899.402 1617.18 938.278 1682.69 920.725C1748.2 903.172 1787.07 835.836 1769.52 770.327M1532.29 833.892C1514.74 768.383 1553.61 701.048 1619.12 683.495C1684.63 665.941 1751.97 704.817 1769.52 770.327M1436.94 1189.74C1502.45 1207.29 1569.79 1168.41 1587.34 1102.91C1604.89 1037.4 1566.02 970.061 1500.51 952.508M1436.94 1189.74C1371.43 1172.18 1332.56 1104.85 1350.11 1039.34C1367.66 973.831 1435 934.954 1500.51 952.508M1436.94 1189.74C1371.43 1172.18 1304.1 1211.06 1286.54 1276.57C1268.99 1342.08 1307.87 1409.41 1373.38 1426.97C1438.89 1444.52 1506.22 1405.65 1523.77 1340.14C1541.33 1274.63 1502.45 1207.29 1436.94 1189.74ZM1436.94 1189.74C1419.39 1124.23 1352.05 1085.35 1286.54 1102.91C1221.03 1120.46 1182.16 1187.79 1199.71 1253.3C1217.26 1318.81 1284.6 1357.69 1350.11 1340.14C1415.62 1322.58 1454.5 1255.25 1436.94 1189.74ZM1500.51 952.508C1482.95 886.998 1415.62 848.122 1350.11 865.675C1284.6 883.228 1245.72 950.564 1263.28 1016.07M1500.51 952.508C1518.06 1018.02 1479.18 1085.35 1413.68 1102.91C1348.17 1120.46 1280.83 1081.58 1263.28 1016.07M1500.51 952.508C1548.46 904.551 1548.46 826.799 1500.51 778.843C1452.55 730.887 1374.8 730.887 1326.84 778.843M1500.51 952.508C1452.55 1000.46 1374.8 1000.46 1326.84 952.507C1278.89 904.551 1278.89 826.799 1326.84 778.843M1500.51 952.508C1566.02 970.061 1633.35 931.185 1650.91 865.675C1668.46 800.166 1629.58 732.831 1564.07 715.277M1500.51 952.508C1435 934.954 1396.12 867.619 1413.68 802.11C1431.23 736.6 1498.56 697.724 1564.07 715.277M1500.51 952.508C1518.06 1018.02 1585.4 1056.89 1650.91 1039.34C1716.41 1021.79 1755.29 954.451 1737.74 888.942M1500.51 952.508C1482.95 886.998 1521.83 819.663 1587.34 802.11C1652.85 784.556 1720.18 823.433 1737.74 888.942M1500.51 952.508C1452.55 1000.46 1452.55 1078.22 1500.51 1126.17C1548.46 1174.13 1626.22 1174.13 1674.17 1126.17M1500.51 952.508C1548.46 904.551 1626.22 904.551 1674.17 952.508C1722.13 1000.46 1722.13 1078.22 1674.17 1126.17M1555.56 1157.95C1490.05 1140.4 1422.71 1179.28 1405.16 1244.79C1387.61 1310.3 1426.48 1377.63 1491.99 1395.19C1557.5 1412.74 1624.84 1373.86 1642.39 1308.35C1659.94 1242.84 1621.07 1175.51 1555.56 1157.95ZM1555.56 1157.95C1507.6 1205.91 1507.6 1283.66 1555.56 1331.62C1603.51 1379.58 1681.27 1379.58 1729.22 1331.62C1777.18 1283.66 1777.18 1205.91 1729.22 1157.96C1681.27 1110 1603.51 1110 1555.56 1157.95ZM1350.11 1102.91C1284.6 1085.35 1217.26 1124.23 1199.71 1189.74C1182.16 1255.25 1221.03 1322.58 1286.54 1340.14C1352.05 1357.69 1419.39 1318.81 1436.94 1253.3C1454.5 1187.79 1415.62 1120.46 1350.11 1102.91ZM1350.11 1102.91C1332.56 1037.4 1265.22 998.52 1199.71 1016.07C1134.2 1033.63 1095.33 1100.96 1112.88 1166.47C1130.43 1231.98 1197.77 1270.86 1263.28 1253.3C1328.79 1235.75 1367.66 1168.41 1350.11 1102.91ZM1523.77 1276.57C1458.27 1259.02 1390.93 1297.89 1373.38 1363.4C1355.82 1428.91 1394.7 1496.25 1460.21 1513.8C1525.72 1531.35 1593.05 1492.48 1610.61 1426.97C1628.16 1361.46 1589.28 1294.12 1523.77 1276.57ZM1523.77 1276.57C1589.28 1294.12 1656.62 1255.25 1674.17 1189.74C1691.73 1124.23 1652.85 1056.89 1587.34 1039.34M1523.77 1276.57C1458.27 1259.02 1419.39 1191.68 1436.94 1126.17C1454.5 1060.66 1521.83 1021.79 1587.34 1039.34M1318.33 1221.52C1252.82 1203.97 1185.48 1242.84 1167.93 1308.35C1150.38 1373.86 1189.25 1441.2 1254.76 1458.75C1320.27 1476.3 1387.61 1437.43 1405.16 1371.92C1422.71 1306.41 1383.84 1239.07 1318.33 1221.52ZM1318.33 1221.52C1300.77 1156.01 1233.44 1117.14 1167.93 1134.69C1102.42 1152.24 1063.54 1219.58 1081.1 1285.09C1098.65 1350.6 1165.99 1389.47 1231.49 1371.92C1297 1354.37 1335.88 1287.03 1318.33 1221.52ZM1587.34 1039.34C1539.38 1087.3 1539.38 1165.05 1587.34 1213C1635.3 1260.96 1713.05 1260.96 1761 1213C1808.96 1165.05 1808.96 1087.3 1761 1039.34C1713.05 991.384 1635.3 991.384 1587.34 1039.34ZM1674.17 1126.17C1608.66 1108.62 1541.33 1147.5 1523.77 1213C1506.22 1278.51 1545.1 1345.85 1610.61 1363.4C1676.12 1380.96 1743.45 1342.08 1761 1276.57C1778.56 1211.06 1739.68 1143.73 1674.17 1126.17ZM1674.17 1126.17C1626.22 1174.13 1626.22 1251.88 1674.17 1299.84C1722.13 1347.79 1799.88 1347.79 1847.84 1299.84C1895.79 1251.88 1895.79 1174.13 1847.84 1126.17C1799.88 1078.22 1722.13 1078.22 1674.17 1126.17ZM1642.39 1244.79C1576.88 1227.23 1509.54 1266.11 1491.99 1331.62C1474.44 1397.13 1513.31 1464.46 1578.82 1482.02C1644.33 1499.57 1711.67 1460.69 1729.22 1395.19C1746.78 1329.68 1707.9 1262.34 1642.39 1244.79ZM1642.39 1244.79C1594.43 1292.74 1594.43 1370.5 1642.39 1418.45C1690.35 1466.41 1768.1 1466.41 1816.05 1418.45C1864.01 1370.5 1864.01 1292.74 1816.05 1244.79C1768.1 1196.83 1690.35 1196.83 1642.39 1244.79ZM1263.28 1016.07C1245.72 950.564 1178.39 911.688 1112.88 929.241C1047.37 946.794 1008.49 1014.13 1026.05 1079.64C1043.6 1145.15 1110.94 1184.02 1176.45 1166.47C1241.95 1148.92 1280.83 1081.58 1263.28 1016.07ZM1263.28 1016.07C1311.23 968.117 1311.23 890.365 1263.28 842.408C1215.32 794.452 1137.57 794.452 1089.61 842.408C1041.66 890.365 1041.66 968.117 1089.61 1016.07C1137.57 1064.03 1215.32 1064.03 1263.28 1016.07ZM1381.89 984.29C1364.34 918.781 1297 879.905 1231.49 897.458C1165.99 915.011 1127.11 982.347 1144.66 1047.86C1162.22 1113.37 1229.55 1152.24 1295.06 1134.69C1360.57 1117.14 1399.45 1049.8 1381.89 984.29ZM1381.89 984.29C1429.85 936.334 1429.85 858.582 1381.89 810.626C1333.94 762.669 1256.18 762.669 1208.23 810.626M1381.89 984.29C1333.94 1032.25 1256.18 1032.25 1208.23 984.29C1160.27 936.334 1160.27 858.582 1208.23 810.626M1295.06 897.458C1277.51 831.949 1210.17 793.073 1144.66 810.626C1079.15 828.179 1040.28 895.514 1057.83 961.024C1075.38 1026.53 1142.72 1065.41 1208.23 1047.86C1273.74 1030.3 1312.61 962.967 1295.06 897.458ZM1295.06 897.458C1343.02 849.502 1343.02 771.749 1295.06 723.793C1247.1 675.837 1169.35 675.837 1121.4 723.793C1073.44 771.749 1073.44 849.502 1121.4 897.458C1169.35 945.414 1247.1 945.414 1295.06 897.458ZM1231.49 1134.69C1213.94 1069.18 1146.61 1030.3 1081.1 1047.86C1015.59 1065.41 976.711 1132.74 994.264 1198.25C1011.82 1263.76 1079.15 1302.64 1144.66 1285.09C1210.17 1267.53 1249.05 1200.2 1231.49 1134.69ZM1176.45 929.241C1158.89 863.732 1091.56 824.855 1026.05 842.409C960.538 859.962 921.662 927.297 939.215 992.807C956.768 1058.32 1024.1 1097.19 1089.61 1079.64C1155.12 1062.09 1194 994.75 1176.45 929.241ZM1176.45 929.241C1224.4 881.285 1224.4 803.532 1176.45 755.576C1128.49 707.62 1050.74 707.62 1002.78 755.576C954.824 803.532 954.824 881.285 1002.78 929.241C1050.74 977.197 1128.49 977.197 1176.45 929.241ZM1326.84 778.843C1374.8 730.887 1374.8 653.134 1326.84 605.178C1278.89 557.222 1201.13 557.222 1153.18 605.178C1105.22 653.134 1105.22 730.887 1153.18 778.843C1201.13 826.799 1278.89 826.799 1326.84 778.843ZM1445.46 747.06C1493.41 699.104 1493.41 621.351 1445.46 573.395C1397.5 525.439 1319.75 525.439 1271.79 573.395C1223.84 621.351 1223.84 699.104 1271.79 747.06C1319.75 795.016 1397.5 795.016 1445.46 747.06ZM1445.46 747.06C1510.97 764.613 1578.3 725.737 1595.86 660.228C1613.41 594.719 1574.53 527.383 1509.02 509.83C1443.51 492.277 1376.18 531.153 1358.63 596.662C1341.07 662.172 1379.95 729.507 1445.46 747.06ZM1208.23 810.626C1256.18 762.669 1256.18 684.917 1208.23 636.961C1160.27 589.005 1082.52 589.005 1034.56 636.961C986.607 684.917 986.607 762.669 1034.56 810.626C1082.52 858.582 1160.27 858.582 1208.23 810.626ZM1564.07 715.277C1629.58 732.831 1696.92 693.954 1714.47 628.445C1732.02 562.936 1693.15 495.6 1627.64 478.047C1562.13 460.494 1494.79 499.37 1477.24 564.879C1459.69 630.389 1498.56 697.724 1564.07 715.277ZM1564.07 715.277C1581.63 780.787 1648.96 819.663 1714.47 802.11C1779.98 784.556 1818.86 717.221 1801.3 651.712C1783.75 586.202 1716.41 547.326 1650.91 564.879C1585.4 582.432 1546.52 649.768 1564.07 715.277ZM1650.91 802.11C1716.42 819.663 1783.75 780.787 1801.3 715.277C1818.86 649.768 1779.98 582.433 1714.47 564.879C1648.96 547.326 1581.63 586.202 1564.07 651.712C1546.52 717.221 1585.4 784.556 1650.91 802.11ZM1650.91 802.11C1668.46 867.619 1735.79 906.495 1801.3 888.942C1866.81 871.389 1905.69 804.053 1888.14 738.544C1870.58 673.035 1803.25 634.158 1737.74 651.712C1672.23 669.265 1633.35 736.6 1650.91 802.11ZM1682.69 683.495C1748.2 701.048 1815.53 662.172 1833.09 596.662C1850.64 531.153 1811.76 463.817 1746.25 446.264C1680.74 428.711 1613.41 467.587 1595.86 533.097C1578.3 598.606 1617.18 665.941 1682.69 683.495ZM1682.69 683.495C1700.24 749.004 1767.58 787.88 1833.09 770.327C1898.6 752.774 1937.47 685.438 1919.92 619.929C1902.37 554.42 1835.03 515.543 1769.52 533.096C1704.01 550.65 1665.14 617.985 1682.69 683.495ZM1737.74 888.942C1755.29 954.451 1822.63 993.327 1888.14 975.774C1953.65 958.221 1992.52 890.886 1974.97 825.376C1957.41 759.867 1890.08 720.991 1824.57 738.544C1759.06 756.097 1720.18 823.433 1737.74 888.942ZM1737.74 888.942C1689.78 936.898 1689.78 1014.65 1737.74 1062.61C1785.69 1110.56 1863.45 1110.56 1911.4 1062.61C1959.36 1014.65 1959.36 936.898 1911.4 888.942C1863.45 840.986 1785.69 840.986 1737.74 888.942ZM1619.12 920.725C1636.68 986.234 1704.01 1025.11 1769.52 1007.56C1835.03 990.004 1873.91 922.669 1856.35 857.159C1838.8 791.65 1771.46 752.774 1705.95 770.327C1640.45 787.88 1601.57 855.215 1619.12 920.725ZM1619.12 920.725C1571.17 968.681 1571.17 1046.43 1619.12 1094.39C1667.08 1142.35 1744.83 1142.35 1792.79 1094.39M1619.12 920.725C1667.08 872.769 1744.83 872.769 1792.79 920.725C1840.74 968.681 1840.74 1046.43 1792.79 1094.39M1705.95 1007.56C1723.51 1073.07 1790.84 1111.94 1856.35 1094.39C1921.86 1076.84 1960.74 1009.5 1943.19 943.991C1925.63 878.482 1858.3 839.606 1792.79 857.159C1727.28 874.712 1688.4 942.048 1705.95 1007.56ZM1705.95 1007.56C1658 1055.51 1658 1133.27 1705.96 1181.22C1753.91 1229.18 1831.66 1229.18 1879.62 1181.22C1927.58 1133.27 1927.58 1055.51 1879.62 1007.56C1831.66 959.601 1753.91 959.601 1705.95 1007.56ZM1769.52 770.327C1787.07 835.836 1854.41 874.712 1919.92 857.159C1985.43 839.606 2024.3 772.27 2006.75 706.761C1989.2 641.252 1921.86 602.376 1856.35 619.929C1790.84 637.482 1751.97 704.817 1769.52 770.327ZM1824.57 975.774C1842.12 1041.28 1909.46 1080.16 1974.97 1062.61C2040.48 1045.05 2079.35 977.718 2061.8 912.209C2044.25 846.699 1976.91 807.823 1911.4 825.376C1845.89 842.93 1807.02 910.265 1824.57 975.774ZM1824.57 975.774C1776.61 1023.73 1776.61 1101.48 1824.57 1149.44C1872.53 1197.4 1950.28 1197.4 1998.23 1149.44C2046.19 1101.48 2046.19 1023.73 1998.23 975.774C1950.28 927.818 1872.53 927.818 1824.57 975.774ZM1792.79 1094.39C1744.83 1142.35 1744.83 1220.1 1792.79 1268.05C1840.74 1316.01 1918.5 1316.01 1966.45 1268.05C2014.41 1220.1 2014.41 1142.35 1966.45 1094.39C1918.5 1046.43 1840.74 1046.43 1792.79 1094.39ZM1334.72 336.123C1400.23 353.676 1467.57 314.8 1485.12 249.29C1502.68 183.781 1463.8 116.446 1398.29 98.8924M1334.72 336.123C1269.22 318.57 1230.34 251.234 1247.89 185.725C1265.45 120.215 1332.78 81.3392 1398.29 98.8924M1334.72 336.123C1269.22 318.57 1201.88 357.446 1184.33 422.955C1166.77 488.464 1205.65 555.8 1271.16 573.353C1336.67 590.906 1404 552.03 1421.56 486.521C1439.11 421.011 1400.23 353.676 1334.72 336.123ZM1334.72 336.123C1317.17 270.613 1249.84 231.737 1184.33 249.29C1118.82 266.844 1079.94 334.179 1097.49 399.688M1334.72 336.123C1352.28 401.632 1313.4 468.968 1247.89 486.521C1182.38 504.074 1115.05 465.198 1097.49 399.688M1398.29 98.8924C1463.8 116.446 1531.14 77.5695 1548.69 12.0602C1566.24 -53.4492 1527.37 -120.785 1461.86 -138.338C1396.35 -155.891 1329.01 -117.015 1311.46 -51.5055C1293.91 14.0038 1332.78 81.3392 1398.29 98.8924ZM1398.29 98.8924C1415.84 164.402 1483.18 203.278 1548.69 185.725C1614.2 168.172 1653.07 100.836 1635.52 35.3268M1398.29 98.8924C1380.74 33.3831 1419.61 -33.9524 1485.12 -51.5055C1550.63 -69.0587 1617.97 -30.1825 1635.52 35.3268M1302.94 454.738C1368.45 472.291 1435.79 433.415 1453.34 367.906C1470.89 302.396 1432.02 235.061 1366.51 217.508M1302.94 454.738C1237.43 437.185 1198.56 369.849 1216.11 304.34C1233.66 238.831 1301 199.954 1366.51 217.508M1302.94 454.738C1237.43 437.185 1170.1 476.061 1152.54 541.57C1134.99 607.079 1173.87 674.415 1239.38 691.968C1304.89 709.521 1372.22 670.645 1389.77 605.136C1407.33 539.626 1368.45 472.291 1302.94 454.738ZM1302.94 454.738C1285.39 389.229 1218.05 350.352 1152.54 367.906C1087.03 385.459 1048.16 452.794 1065.71 518.304C1083.26 583.813 1150.6 622.689 1216.11 605.136C1281.62 587.583 1320.5 520.247 1302.94 454.738ZM1366.51 217.508C1348.95 151.998 1281.62 113.122 1216.11 130.675C1150.6 148.228 1111.72 215.564 1129.28 281.073M1366.51 217.508C1384.06 283.017 1345.18 350.352 1279.68 367.905C1214.17 385.459 1146.83 346.583 1129.28 281.073M1366.51 217.508C1414.46 169.551 1414.46 91.7989 1366.51 43.8427C1318.55 -4.11342 1240.8 -4.11338 1192.84 43.8428M1366.51 217.508C1318.55 265.464 1240.8 265.464 1192.84 217.507C1144.89 169.551 1144.89 91.7989 1192.84 43.8428M1366.51 217.508C1432.02 235.061 1499.35 196.185 1516.91 130.675C1534.46 65.166 1495.58 -2.16948 1430.07 -19.7227M1366.51 217.508C1301 199.954 1262.12 132.619 1279.68 67.1097C1297.23 1.60035 1364.56 -37.2758 1430.07 -19.7227M1366.51 217.508C1384.06 283.017 1451.4 321.893 1516.91 304.34C1582.41 286.787 1621.29 219.451 1603.74 153.942M1366.51 217.508C1348.95 151.998 1387.83 84.6629 1453.34 67.1097C1518.85 49.5565 1586.18 88.4326 1603.74 153.942M1366.51 217.508C1318.55 265.464 1318.55 343.216 1366.51 391.172C1414.46 439.128 1492.22 439.128 1540.17 391.172M1366.51 217.508C1414.46 169.551 1492.22 169.551 1540.17 217.508C1588.13 265.464 1588.13 343.216 1540.17 391.172M1421.56 422.955C1356.05 405.402 1288.71 444.278 1271.16 509.787C1253.61 575.297 1292.48 642.632 1357.99 660.185C1423.5 677.738 1490.84 638.862 1508.39 573.353C1525.94 507.844 1487.07 440.508 1421.56 422.955ZM1421.56 422.955C1373.6 470.911 1373.6 548.664 1421.56 596.62C1469.51 644.576 1547.27 644.576 1595.22 596.62C1643.18 548.664 1643.18 470.911 1595.22 422.955C1547.27 374.999 1469.51 374.999 1421.56 422.955ZM1216.11 367.906C1150.6 350.352 1083.26 389.229 1065.71 454.738C1048.16 520.247 1087.03 587.583 1152.54 605.136C1218.05 622.689 1285.39 583.813 1302.94 518.304C1320.5 452.794 1281.62 385.459 1216.11 367.906ZM1216.11 367.906C1198.56 302.396 1131.22 263.52 1065.71 281.073C1000.2 298.626 961.326 365.962 978.88 431.471C996.433 496.981 1063.77 535.857 1129.28 518.304C1194.79 500.75 1233.66 433.415 1216.11 367.906ZM1389.77 541.57C1324.27 524.017 1256.93 562.893 1239.38 628.402C1221.82 693.912 1260.7 761.247 1326.21 778.8C1391.72 796.354 1459.05 757.477 1476.61 691.968C1494.16 626.459 1455.28 559.123 1389.77 541.57ZM1389.77 541.57C1455.28 559.123 1522.62 520.247 1540.17 454.738C1557.73 389.229 1518.85 321.893 1453.34 304.34M1389.77 541.57C1324.27 524.017 1285.39 456.682 1302.94 391.172C1320.5 325.663 1387.83 286.787 1453.34 304.34M1184.33 486.521C1118.82 468.968 1051.48 507.844 1033.93 573.353C1016.38 638.862 1055.25 706.198 1120.76 723.751C1186.27 741.304 1253.61 702.428 1271.16 636.919C1288.71 571.409 1249.84 504.074 1184.33 486.521ZM1184.33 486.521C1166.77 421.011 1099.44 382.135 1033.93 399.688C968.42 417.242 929.544 484.577 947.097 550.086C964.65 615.596 1031.99 654.472 1097.49 636.919C1163 619.366 1201.88 552.03 1184.33 486.521ZM1453.34 304.34C1405.38 352.296 1405.38 430.048 1453.34 478.005C1501.3 525.961 1579.05 525.961 1627 478.005C1674.96 430.048 1674.96 352.296 1627 304.34C1579.05 256.384 1501.3 256.384 1453.34 304.34ZM1540.17 391.172C1474.66 373.619 1407.33 412.495 1389.77 478.005C1372.22 543.514 1411.1 610.849 1476.61 628.402C1542.12 645.956 1609.45 607.08 1627 541.57C1644.56 476.061 1605.68 408.725 1540.17 391.172ZM1540.17 391.172C1492.22 439.128 1492.22 516.881 1540.17 564.837C1588.13 612.793 1665.88 612.793 1713.84 564.837C1761.79 516.881 1761.79 439.128 1713.84 391.172C1665.88 343.216 1588.13 343.216 1540.17 391.172ZM1508.39 509.787C1442.88 492.234 1375.54 531.11 1357.99 596.62C1340.44 662.129 1379.31 729.464 1444.82 747.018C1510.33 764.571 1577.67 725.695 1595.22 660.185C1612.78 594.676 1573.9 527.341 1508.39 509.787ZM1508.39 509.787C1460.43 557.744 1460.43 635.496 1508.39 683.452C1556.35 731.408 1634.1 731.408 1682.05 683.452C1730.01 635.496 1730.01 557.744 1682.05 509.787C1634.1 461.831 1556.35 461.831 1508.39 509.787ZM1129.28 281.073C1111.72 215.564 1044.39 176.688 978.879 194.241C913.37 211.794 874.494 279.13 892.047 344.639C909.6 410.148 976.936 449.024 1042.45 431.471C1107.95 413.918 1146.83 346.583 1129.28 281.073ZM1129.28 281.073C1177.23 233.117 1177.23 155.365 1129.28 107.408C1081.32 59.4523 1003.57 59.4523 955.613 107.408C907.657 155.365 907.657 233.117 955.613 281.073C1003.57 329.029 1081.32 329.029 1129.28 281.073ZM1247.89 249.29C1230.34 183.781 1163 144.905 1097.49 162.458C1031.99 180.011 993.109 247.347 1010.66 312.856C1028.22 378.365 1095.55 417.242 1161.06 399.688C1226.57 382.135 1265.45 314.8 1247.89 249.29ZM1247.89 249.29C1295.85 201.334 1295.85 123.582 1247.89 75.6256C1199.94 27.6694 1122.18 27.6695 1074.23 75.6256M1247.89 249.29C1199.94 297.247 1122.18 297.246 1074.23 249.29C1026.27 201.334 1026.27 123.582 1074.23 75.6256M1161.06 162.458C1143.51 96.9487 1076.17 58.0726 1010.66 75.6257C945.153 93.1789 906.277 160.514 923.83 226.024C941.383 291.533 1008.72 330.409 1074.23 312.856C1139.74 295.303 1178.61 227.967 1161.06 162.458ZM1161.06 162.458C1209.02 114.502 1209.02 36.7495 1161.06 -11.2067C1113.1 -59.1628 1035.35 -59.1628 987.396 -11.2067C939.44 36.7495 939.44 114.502 987.396 162.458C1035.35 210.414 1113.1 210.414 1161.06 162.458ZM1097.49 399.688C1079.94 334.179 1012.61 295.303 947.097 312.856C881.587 330.409 842.711 397.745 860.264 463.254C877.818 528.763 945.153 567.64 1010.66 550.086C1076.17 532.533 1115.05 465.198 1097.49 399.688ZM1042.45 194.241C1024.89 128.732 957.556 89.8554 892.047 107.409C826.538 124.962 787.662 192.297 805.215 257.807C822.768 323.316 890.103 362.192 955.613 344.639C1021.12 327.086 1060 259.75 1042.45 194.241ZM1042.45 194.241C1090.4 146.285 1090.4 68.5323 1042.45 20.5762C994.489 -27.38 916.737 -27.38 868.781 20.5761C820.824 68.5323 820.824 146.285 868.781 194.241C916.737 242.197 994.489 242.197 1042.45 194.241ZM1192.84 43.8428C1240.8 -4.11338 1240.8 -81.8657 1192.84 -129.822C1144.89 -177.778 1067.13 -177.778 1019.18 -129.822C971.223 -81.8657 971.223 -4.11342 1019.18 43.8427C1067.13 91.7989 1144.89 91.7989 1192.84 43.8428ZM1311.46 12.0599C1359.41 -35.8962 1359.41 -113.649 1311.46 -161.605C1263.5 -209.561 1185.75 -209.561 1137.79 -161.605C1089.84 -113.649 1089.84 -35.8963 1137.79 12.0599C1185.75 60.0161 1263.5 60.0161 1311.46 12.0599ZM1311.46 12.0599C1376.97 29.6131 1444.3 -9.26279 1461.86 -74.7721C1479.41 -140.281 1440.53 -207.617 1375.02 -225.17C1309.51 -242.723 1242.18 -203.847 1224.63 -138.338C1207.07 -72.8284 1245.95 -5.49327 1311.46 12.0599ZM1074.23 75.6256C1122.18 27.6695 1122.18 -50.0828 1074.23 -98.039C1026.27 -145.995 948.52 -145.995 900.564 -98.039C852.607 -50.0828 852.607 27.6694 900.564 75.6256C948.52 123.582 1026.27 123.582 1074.23 75.6256ZM1430.07 -19.7227C1495.58 -2.16948 1562.92 -41.0456 1580.47 -106.555C1598.02 -172.064 1559.15 -239.4 1493.64 -256.953C1428.13 -274.506 1360.79 -235.63 1343.24 -170.121C1325.69 -104.611 1364.56 -37.2758 1430.07 -19.7227ZM1430.07 -19.7227C1447.63 45.7867 1514.96 84.6627 1580.47 67.1096C1645.98 49.5564 1684.86 -17.779 1667.3 -83.2884C1649.75 -148.798 1582.41 -187.674 1516.91 -170.121C1451.4 -152.568 1412.52 -85.232 1430.07 -19.7227ZM1516.91 67.1097C1582.42 84.6629 1649.75 45.7867 1667.3 -19.7226C1684.86 -85.232 1645.98 -152.567 1580.47 -170.121C1514.96 -187.674 1447.63 -148.798 1430.07 -83.2883C1412.52 -17.779 1451.4 49.5565 1516.91 67.1097ZM1516.91 67.1097C1534.46 132.619 1601.79 171.495 1667.3 153.942C1732.81 136.389 1771.69 69.0533 1754.14 3.54398C1736.58 -61.9654 1669.25 -100.842 1603.74 -83.2883C1538.23 -65.7352 1499.35 1.60035 1516.91 67.1097ZM1548.69 -51.5055C1614.2 -33.9523 1681.53 -72.8284 1699.09 -138.338C1716.64 -203.847 1677.76 -271.183 1612.25 -288.736C1546.74 -306.289 1479.41 -267.413 1461.86 -201.903C1444.3 -136.394 1483.18 -69.0586 1548.69 -51.5055ZM1548.69 -51.5055C1566.24 14.0039 1633.58 52.8799 1699.09 35.3268C1764.6 17.7736 1803.47 -49.5619 1785.92 -115.071C1768.37 -180.581 1701.03 -219.457 1635.52 -201.904C1570.01 -184.35 1531.14 -117.015 1548.69 -51.5055ZM1603.74 153.942C1621.29 219.451 1688.63 258.327 1754.14 240.774C1819.65 223.221 1858.52 155.886 1840.97 90.3763C1823.41 24.867 1756.08 -14.0092 1690.57 3.54401C1625.06 21.0972 1586.18 88.4326 1603.74 153.942ZM1603.74 153.942C1555.78 201.898 1555.78 279.65 1603.74 327.607C1651.69 375.563 1729.45 375.563 1777.4 327.607C1825.36 279.65 1825.36 201.898 1777.4 153.942C1729.45 105.986 1651.69 105.986 1603.74 153.942ZM1485.12 185.725C1502.68 251.234 1570.01 290.11 1635.52 272.557C1701.03 255.004 1739.91 187.668 1722.35 122.159C1704.8 56.6498 1637.46 17.7737 1571.96 35.3268C1506.45 52.88 1467.57 120.215 1485.12 185.725ZM1485.12 185.725C1437.17 233.681 1437.17 311.433 1485.12 359.389C1533.08 407.346 1610.83 407.346 1658.79 359.389M1485.12 185.725C1533.08 137.769 1610.83 137.769 1658.79 185.725C1706.74 233.681 1706.74 311.433 1658.79 359.389M1571.96 272.557C1589.51 338.066 1656.84 376.943 1722.35 359.389C1787.86 341.836 1826.74 274.501 1809.19 208.991C1791.63 143.482 1724.3 104.606 1658.79 122.159C1593.28 139.712 1554.4 207.048 1571.96 272.557ZM1571.96 272.557C1524 320.513 1524 398.266 1571.96 446.222C1619.91 494.178 1697.66 494.178 1745.62 446.222C1793.58 398.266 1793.58 320.513 1745.62 272.557C1697.66 224.601 1619.91 224.601 1571.96 272.557ZM1635.52 35.3268C1653.07 100.836 1720.41 139.712 1785.92 122.159C1851.43 104.606 1890.3 37.2705 1872.75 -28.2389C1855.2 -93.7482 1787.86 -132.624 1722.35 -115.071C1656.84 -97.518 1617.97 -30.1825 1635.52 35.3268ZM1690.57 240.774C1708.12 306.284 1775.46 345.16 1840.97 327.607C1906.48 310.053 1945.35 242.718 1927.8 177.209C1910.25 111.699 1842.91 72.8231 1777.4 90.3763C1711.89 107.929 1673.02 175.265 1690.57 240.774ZM1690.57 240.774C1642.61 288.73 1642.61 366.483 1690.57 414.439C1738.53 462.395 1816.28 462.395 1864.23 414.439C1912.19 366.483 1912.19 288.73 1864.23 240.774C1816.28 192.818 1738.53 192.818 1690.57 240.774ZM1658.79 359.389C1610.83 407.346 1610.83 485.098 1658.79 533.054C1706.74 581.01 1784.5 581.01 1832.45 533.054C1880.41 485.098 1880.41 407.346 1832.45 359.389C1784.5 311.433 1706.74 311.433 1658.79 359.389ZM732.725 937.123C798.234 954.676 865.57 915.8 883.123 850.29C900.676 784.781 861.8 717.446 796.291 699.892M732.725 937.123C667.216 919.57 628.339 852.234 645.893 786.725C663.446 721.215 730.781 682.339 796.291 699.892M732.725 937.123C667.216 919.57 599.88 958.446 582.327 1023.95C564.774 1089.46 603.65 1156.8 669.159 1174.35C734.669 1191.91 802.004 1153.03 819.557 1087.52C837.11 1022.01 798.234 954.676 732.725 937.123ZM732.725 937.123C715.172 871.613 647.836 832.737 582.327 850.29C516.818 867.844 477.941 935.179 495.495 1000.69M732.725 937.123C750.278 1002.63 711.402 1069.97 645.893 1087.52C580.383 1105.07 513.048 1066.2 495.495 1000.69M796.291 699.892C861.8 717.446 929.135 678.57 946.688 613.06C964.242 547.551 925.366 480.215 859.856 462.662C794.347 445.109 727.011 483.985 709.458 549.495C691.905 615.004 730.781 682.339 796.291 699.892ZM796.291 699.892C813.844 765.402 881.179 804.278 946.688 786.725C1012.2 769.172 1051.07 701.836 1033.52 636.327M796.291 699.892C778.737 634.383 817.613 567.048 883.123 549.495C948.632 531.941 1015.97 570.817 1033.52 636.327M700.942 1055.74C766.451 1073.29 833.787 1034.41 851.34 968.906C868.893 903.396 830.017 836.061 764.508 818.508M700.942 1055.74C635.433 1038.18 596.557 970.849 614.11 905.34C631.663 839.831 698.998 800.954 764.508 818.508M700.942 1055.74C635.433 1038.18 568.097 1077.06 550.544 1142.57C532.991 1208.08 571.867 1275.41 637.376 1292.97C702.886 1310.52 770.221 1271.65 787.774 1206.14C805.328 1140.63 766.451 1073.29 700.942 1055.74ZM700.942 1055.74C683.389 990.228 616.053 951.352 550.544 968.906C485.035 986.459 446.159 1053.79 463.712 1119.3C481.265 1184.81 548.6 1223.69 614.11 1206.14C679.619 1188.58 718.495 1121.25 700.942 1055.74ZM764.508 818.508C746.955 752.998 679.619 714.122 614.11 731.675C548.6 749.228 509.724 816.564 527.277 882.073M764.508 818.508C782.061 884.017 743.185 951.352 677.675 968.906C612.166 986.459 544.831 947.583 527.277 882.073M764.508 818.508C812.464 770.551 812.464 692.799 764.508 644.843C716.552 596.887 638.8 596.887 590.843 644.843M764.508 818.508C716.552 866.464 638.8 866.463 590.843 818.507C542.887 770.551 542.887 692.799 590.843 644.843M764.508 818.508C830.017 836.061 897.352 797.185 914.906 731.675C932.459 666.166 893.583 598.831 828.073 581.277M764.508 818.508C698.998 800.954 660.122 733.619 677.675 668.11C695.229 602.6 762.564 563.724 828.073 581.277M764.508 818.508C782.061 884.017 849.396 922.893 914.906 905.34C980.415 887.787 1019.29 820.451 1001.74 754.942M764.508 818.508C746.955 752.998 785.831 685.663 851.34 668.11C916.849 650.556 984.185 689.433 1001.74 754.942M764.508 818.508C716.552 866.464 716.551 944.216 764.508 992.172C812.464 1040.13 890.216 1040.13 938.172 992.172M764.508 818.508C812.464 770.551 890.216 770.551 938.172 818.508C986.128 866.464 986.129 944.216 938.172 992.172M819.557 1023.95C754.048 1006.4 686.712 1045.28 669.159 1110.79C651.606 1176.3 690.482 1243.63 755.992 1261.19C821.501 1278.74 888.836 1239.86 906.39 1174.35C923.943 1108.84 885.067 1041.51 819.557 1023.95ZM819.557 1023.95C771.601 1071.91 771.601 1149.66 819.557 1197.62C867.513 1245.58 945.265 1245.58 993.222 1197.62C1041.18 1149.66 1041.18 1071.91 993.222 1023.96C945.266 975.999 867.513 975.999 819.557 1023.95ZM614.11 968.906C548.6 951.352 481.265 990.228 463.712 1055.74C446.159 1121.25 485.035 1188.58 550.544 1206.14C616.053 1223.69 683.389 1184.81 700.942 1119.3C718.495 1053.79 679.619 986.459 614.11 968.906ZM614.11 968.906C596.557 903.396 529.221 864.52 463.712 882.073C398.202 899.626 359.326 966.962 376.879 1032.47C394.433 1097.98 461.768 1136.86 527.277 1119.3C592.787 1101.75 631.663 1034.41 614.11 968.906ZM874.607 1292.97C857.054 1358.48 789.718 1397.35 724.209 1379.8C658.699 1362.25 619.823 1294.91 637.376 1229.4C654.93 1163.89 722.265 1125.02 787.774 1142.57M787.774 1142.57C853.284 1160.12 920.619 1121.25 938.172 1055.74C955.726 990.228 916.849 922.893 851.34 905.34M787.774 1142.57C722.265 1125.02 683.389 1057.68 700.942 992.172C718.495 926.663 785.831 887.787 851.34 905.34M582.327 1087.52C516.818 1069.97 449.482 1108.84 431.929 1174.35C414.376 1239.86 453.252 1307.2 518.761 1324.75C584.271 1342.3 651.606 1303.43 669.159 1237.92C686.712 1172.41 647.836 1105.07 582.327 1087.52ZM582.327 1087.52C564.774 1022.01 497.438 983.135 431.929 1000.69C366.42 1018.24 327.544 1085.58 345.097 1151.09C362.65 1216.6 429.985 1255.47 495.495 1237.92C561.004 1220.37 599.88 1153.03 582.327 1087.52ZM851.34 905.34C803.384 953.296 803.384 1031.05 851.34 1079C899.296 1126.96 977.048 1126.96 1025 1079C1072.96 1031.05 1072.96 953.296 1025 905.34C977.048 857.384 899.296 857.384 851.34 905.34ZM938.172 992.172C872.663 974.619 805.328 1013.5 787.774 1079C770.221 1144.51 809.097 1211.85 874.607 1229.4C940.116 1246.96 1007.45 1208.08 1025 1142.57C1042.56 1077.06 1003.68 1009.73 938.172 992.172ZM938.172 992.172C890.216 1040.13 890.216 1117.88 938.172 1165.84C986.128 1213.79 1063.88 1213.79 1111.84 1165.84C1159.79 1117.88 1159.79 1040.13 1111.84 992.172C1063.88 944.216 986.129 944.216 938.172 992.172ZM906.39 1110.79C840.88 1093.23 773.545 1132.11 755.992 1197.62C738.438 1263.13 777.315 1330.46 842.824 1348.02C908.333 1365.57 975.669 1326.69 993.222 1261.19C1010.78 1195.68 971.899 1128.34 906.39 1110.79ZM906.39 1110.79C858.433 1158.74 858.433 1236.5 906.389 1284.45C954.346 1332.41 1032.1 1332.41 1080.05 1284.45C1128.01 1236.5 1128.01 1158.74 1080.05 1110.79C1032.1 1062.83 954.346 1062.83 906.39 1110.79ZM527.277 882.073C509.724 816.564 442.389 777.688 376.879 795.241C311.37 812.794 272.494 880.13 290.047 945.639C307.6 1011.15 374.936 1050.02 440.445 1032.47C505.954 1014.92 544.831 947.583 527.277 882.073ZM527.277 882.073C575.234 834.117 575.234 756.365 527.278 708.408C479.321 660.452 401.569 660.452 353.613 708.408C305.657 756.365 305.657 834.117 353.613 882.073C401.569 930.029 479.321 930.029 527.277 882.073ZM645.893 850.29C628.339 784.781 561.004 745.905 495.495 763.458C429.985 781.011 391.109 848.347 408.662 913.856C426.215 979.365 493.551 1018.24 559.06 1000.69C624.57 983.135 663.446 915.8 645.893 850.29ZM645.893 850.29C693.849 802.334 693.849 724.582 645.893 676.626C597.937 628.669 520.184 628.669 472.228 676.626M645.893 850.29C597.936 898.247 520.184 898.246 472.228 850.29C424.272 802.334 424.272 724.582 472.228 676.626M559.06 763.458C541.507 697.949 474.172 659.073 408.662 676.626C343.153 694.179 304.277 761.514 321.83 827.024C339.383 892.533 406.719 931.409 472.228 913.856C537.737 896.303 576.613 828.967 559.06 763.458ZM559.06 763.458C607.016 715.502 607.017 637.749 559.06 589.793C511.104 541.837 433.352 541.837 385.396 589.793C337.44 637.749 337.44 715.502 385.396 763.458C433.352 811.414 511.104 811.414 559.06 763.458ZM495.495 1000.69C477.941 935.179 410.606 896.303 345.097 913.856C279.587 931.409 240.711 998.745 258.264 1064.25C275.818 1129.76 343.153 1168.64 408.662 1151.09C474.172 1133.53 513.048 1066.2 495.495 1000.69ZM440.445 795.241C422.892 729.732 355.556 690.855 290.047 708.409C224.538 725.962 185.662 793.297 203.215 858.807C220.768 924.316 288.104 963.192 353.613 945.639C419.122 928.086 457.998 860.75 440.445 795.241ZM440.445 795.241C488.401 747.285 488.401 669.532 440.445 621.576C392.489 573.62 314.737 573.62 266.781 621.576C218.825 669.532 218.825 747.285 266.781 795.241C314.737 843.197 392.489 843.197 440.445 795.241ZM590.843 644.843C638.8 596.887 638.8 519.134 590.843 471.178C542.887 423.222 465.135 423.222 417.179 471.178C369.223 519.134 369.223 596.887 417.179 644.843C465.135 692.799 542.887 692.799 590.843 644.843ZM709.458 613.06C757.415 565.104 757.415 487.351 709.458 439.395C661.502 391.439 583.75 391.439 535.794 439.395C487.838 487.351 487.838 565.104 535.794 613.06C583.75 661.016 661.502 661.016 709.458 613.06ZM709.458 613.06C774.968 630.613 842.303 591.737 859.856 526.228C877.409 460.719 838.533 393.383 773.024 375.83C707.514 358.277 640.179 397.153 622.626 462.662C605.073 528.172 643.949 595.507 709.458 613.06ZM472.228 676.626C520.184 628.669 520.184 550.917 472.228 502.961C424.272 455.005 346.52 455.005 298.564 502.961C250.607 550.917 250.607 628.669 298.564 676.626C346.52 724.582 424.272 724.582 472.228 676.626ZM828.073 581.277C893.583 598.831 960.918 559.954 978.471 494.445C996.024 428.936 957.148 361.6 891.639 344.047C826.13 326.494 758.794 365.37 741.241 430.879C723.688 496.389 762.564 563.724 828.073 581.277ZM828.073 581.277C845.627 646.787 912.962 685.663 978.471 668.11C1043.98 650.556 1082.86 583.221 1065.3 517.712C1047.75 452.202 980.415 413.326 914.905 430.879C849.396 448.432 810.52 515.768 828.073 581.277ZM914.906 668.11C980.415 685.663 1047.75 646.787 1065.3 581.277C1082.86 515.768 1043.98 448.433 978.471 430.879C912.962 413.326 845.627 452.202 828.073 517.712C810.52 583.221 849.396 650.556 914.906 668.11ZM914.906 668.11C932.459 733.619 999.794 772.495 1065.3 754.942C1130.81 737.389 1169.69 670.053 1152.14 604.544C1134.58 539.035 1067.25 500.158 1001.74 517.712C936.228 535.265 897.353 602.6 914.906 668.11ZM946.688 549.495C1012.2 567.048 1079.53 528.172 1097.09 462.662C1114.64 397.153 1075.76 329.817 1010.25 312.264C944.745 294.711 877.409 333.587 859.856 399.097C842.303 464.606 881.179 531.941 946.688 549.495ZM946.688 549.495C964.242 615.004 1031.58 653.88 1097.09 636.327C1162.6 618.774 1201.47 551.438 1183.92 485.929C1166.37 420.419 1099.03 381.543 1033.52 399.096C968.011 416.65 929.135 483.985 946.688 549.495ZM1001.74 754.942C1019.29 820.451 1086.63 859.327 1152.14 841.774C1217.65 824.221 1256.52 756.886 1238.97 691.376C1221.41 625.867 1154.08 586.991 1088.57 604.544C1023.06 622.097 984.185 689.433 1001.74 754.942ZM1001.74 754.942C953.782 802.898 953.782 880.65 1001.74 928.607C1049.69 976.563 1127.45 976.563 1175.4 928.607C1223.36 880.65 1223.36 802.898 1175.4 754.942C1127.45 706.986 1049.69 706.986 1001.74 754.942ZM883.123 786.725C900.676 852.234 968.011 891.11 1033.52 873.557C1099.03 856.004 1137.91 788.669 1120.35 723.159C1102.8 657.65 1035.46 618.774 969.955 636.327C904.446 653.88 865.57 721.215 883.123 786.725ZM883.123 786.725C835.167 834.681 835.167 912.433 883.123 960.389C931.079 1008.35 1008.83 1008.35 1056.79 960.389M883.123 786.725C931.079 738.769 1008.83 738.769 1056.79 786.725C1104.74 834.681 1104.74 912.433 1056.79 960.389M969.955 873.557C987.508 939.066 1054.84 977.943 1120.35 960.389C1185.86 942.836 1224.74 875.501 1207.19 809.991C1189.63 744.482 1122.3 705.606 1056.79 723.159C991.278 740.712 952.402 808.048 969.955 873.557ZM969.955 873.557C921.999 921.513 921.999 999.266 969.955 1047.22C1017.91 1095.18 1095.66 1095.18 1143.62 1047.22C1191.58 999.266 1191.58 921.513 1143.62 873.557C1095.66 825.601 1017.91 825.601 969.955 873.557ZM1033.52 636.327C1051.07 701.836 1118.41 740.712 1183.92 723.159C1249.43 705.606 1288.3 638.271 1270.75 572.761C1253.2 507.252 1185.86 468.376 1120.35 485.929C1054.84 503.482 1015.97 570.817 1033.52 636.327ZM1088.57 841.774C1106.12 907.284 1173.46 946.16 1238.97 928.607C1304.48 911.053 1343.35 843.718 1325.8 778.209C1308.25 712.699 1240.91 673.823 1175.4 691.376C1109.89 708.93 1071.02 776.265 1088.57 841.774ZM1088.57 841.774C1040.61 889.73 1040.61 967.483 1088.57 1015.44C1136.53 1063.4 1214.28 1063.4 1262.23 1015.44C1310.19 967.483 1310.19 889.73 1262.23 841.774C1214.28 793.818 1136.53 793.818 1088.57 841.774ZM1056.79 960.389C1008.83 1008.35 1008.83 1086.1 1056.79 1134.05C1104.74 1182.01 1182.5 1182.01 1230.45 1134.05C1278.41 1086.1 1278.41 1008.35 1230.45 960.389C1182.5 912.433 1104.74 912.433 1056.79 960.389ZM-34.2751 922.123C31.2342 939.676 98.5696 900.8 116.123 835.29C133.676 769.781 94.7998 702.446 29.2905 684.892M-34.2751 922.123C-99.7845 904.57 -138.661 837.234 -121.107 771.725C-103.554 706.215 -36.2189 667.339 29.2905 684.892M-34.2751 922.123C-99.7845 904.57 -167.12 943.446 -184.673 1008.95C-202.226 1074.46 -163.35 1141.8 -97.8408 1159.35C-32.3315 1176.91 35.004 1138.03 52.5571 1072.52C70.1103 1007.01 31.2342 939.676 -34.2751 922.123ZM-34.2751 922.123C-51.8283 856.613 -119.164 817.737 -184.673 835.29C-250.182 852.844 -289.059 920.179 -271.505 985.688M-34.2751 922.123C-16.722 987.632 -55.5981 1054.97 -121.107 1072.52C-186.617 1090.07 -253.952 1051.2 -271.505 985.688M29.2905 684.892C94.7998 702.446 162.135 663.57 179.688 598.06C197.242 532.551 158.366 465.215 92.8562 447.662C27.3469 430.109 -39.9887 468.985 -57.5418 534.495C-75.095 600.004 -36.2189 667.339 29.2905 684.892ZM29.2905 684.892C46.8436 750.402 114.179 789.278 179.688 771.725C245.198 754.172 284.074 686.836 266.521 621.327M29.2905 684.892C11.7373 619.383 50.6132 552.048 116.123 534.495C181.632 516.941 248.967 555.817 266.521 621.327M-66.058 1040.74C-0.548676 1058.29 66.7868 1019.41 84.34 953.906C101.893 888.396 63.017 821.061 -2.49237 803.508M-66.058 1040.74C-131.567 1023.18 -170.443 955.849 -152.89 890.34C-135.337 824.831 -68.0017 785.954 -2.49237 803.508M-66.058 1040.74C-131.567 1023.18 -198.903 1062.06 -216.456 1127.57C-234.009 1193.08 -195.133 1260.41 -129.624 1277.97C-64.1143 1295.52 3.22112 1256.65 20.7743 1191.14C38.3275 1125.63 -0.548676 1058.29 -66.058 1040.74ZM-66.058 1040.74C-83.6112 975.228 -150.947 936.352 -216.456 953.906C-281.965 971.459 -320.841 1038.79 -303.288 1104.3C-285.735 1169.81 -218.4 1208.69 -152.89 1191.14C-87.381 1173.58 -48.5048 1106.25 -66.058 1040.74ZM-2.49237 803.508C-20.0455 737.998 -87.381 699.122 -152.89 716.675C-218.4 734.228 -257.276 801.564 -239.723 867.073M-2.49237 803.508C15.0608 869.017 -23.8153 936.352 -89.3246 953.906C-154.834 971.459 -222.169 932.583 -239.723 867.073M-2.49237 803.508C45.4638 755.551 45.4641 677.799 -2.49207 629.843C-50.4482 581.887 -128.201 581.887 -176.157 629.843M-2.49237 803.508C-50.4485 851.464 -128.201 851.463 -176.157 803.507C-224.113 755.551 -224.113 677.799 -176.157 629.843M-2.49237 803.508C63.017 821.061 130.352 782.185 147.906 716.675C165.459 651.166 126.583 583.831 61.0733 566.277M-2.49237 803.508C-68.0017 785.954 -106.878 718.619 -89.3247 653.11C-71.7715 587.6 -4.43604 548.724 61.0733 566.277M-2.49237 803.508C15.0608 869.017 82.3961 907.893 147.905 890.34C213.415 872.787 252.291 805.451 234.738 739.942M-2.49237 803.508C-20.0455 737.998 18.8304 670.663 84.3398 653.11C149.849 635.556 217.185 674.433 234.738 739.942M-2.49237 803.508C-50.4485 851.464 -50.4487 929.216 -2.49255 977.172C45.4636 1025.13 123.216 1025.13 171.172 977.172M-2.49237 803.508C45.4638 755.551 123.216 755.551 171.172 803.508C219.128 851.464 219.129 929.216 171.172 977.172M52.5572 1008.95C-12.9521 991.402 -80.2876 1030.28 -97.8408 1095.79C-115.394 1161.3 -76.5178 1228.63 -11.0085 1246.19C54.5009 1263.74 121.836 1224.86 139.389 1159.35C156.943 1093.84 118.067 1026.51 52.5572 1008.95ZM52.5572 1008.95C4.60103 1056.91 4.60078 1134.66 52.5569 1182.62C100.513 1230.58 178.265 1230.58 226.221 1182.62C274.178 1134.66 274.178 1056.91 226.222 1008.96C178.265 960.999 100.513 960.999 52.5572 1008.95ZM-152.89 953.906C-218.4 936.352 -285.735 975.228 -303.288 1040.74C-320.842 1106.25 -281.965 1173.58 -216.456 1191.14C-150.947 1208.69 -83.6112 1169.81 -66.058 1104.3C-48.5049 1038.79 -87.381 971.459 -152.89 953.906ZM-152.89 953.906C-170.444 888.396 -237.779 849.52 -303.288 867.073C-368.798 884.626 -407.674 951.962 -390.121 1017.47C-372.567 1082.98 -305.232 1121.86 -239.723 1104.3C-174.213 1086.75 -135.337 1019.41 -152.89 953.906ZM20.7744 1127.57C-44.735 1110.02 -112.07 1148.89 -129.624 1214.4C-147.177 1279.91 -108.301 1347.25 -42.7913 1364.8C22.718 1382.35 90.0535 1343.48 107.607 1277.97C125.16 1212.46 86.2837 1145.12 20.7744 1127.57ZM20.7744 1127.57C86.2837 1145.12 153.619 1106.25 171.172 1040.74C188.725 975.228 149.849 907.893 84.34 890.34M20.7744 1127.57C-44.735 1110.02 -83.6112 1042.68 -66.058 977.172C-48.5048 911.663 18.8307 872.787 84.34 890.34M-184.673 1072.52C-250.183 1054.97 -317.518 1093.84 -335.071 1159.35C-352.624 1224.86 -313.748 1292.2 -248.239 1309.75C-182.729 1327.3 -115.394 1288.43 -97.8409 1222.92C-80.2877 1157.41 -119.164 1090.07 -184.673 1072.52ZM-184.673 1072.52C-202.226 1007.01 -269.562 968.135 -335.071 985.688C-400.58 1003.24 -439.457 1070.58 -421.903 1136.09C-404.35 1201.6 -337.015 1240.47 -271.505 1222.92C-205.996 1205.37 -167.12 1138.03 -184.673 1072.52ZM84.34 890.34C36.3839 938.296 36.3836 1016.05 84.3398 1064C132.296 1111.96 210.048 1111.96 258.004 1064C305.961 1016.05 305.961 938.296 258.004 890.34C210.048 842.384 132.296 842.384 84.34 890.34ZM171.172 977.172C105.663 959.619 38.3275 998.495 20.7744 1064C3.22118 1129.51 42.0974 1196.85 107.607 1214.4C173.116 1231.96 240.451 1193.08 258.005 1127.57C275.558 1062.06 236.682 994.725 171.172 977.172ZM171.172 977.172C123.216 1025.13 123.216 1102.88 171.172 1150.84C219.128 1198.79 296.881 1198.79 344.837 1150.84C392.793 1102.88 392.793 1025.13 344.837 977.172C296.881 929.216 219.129 929.216 171.172 977.172ZM139.39 1095.79C73.8802 1078.23 6.54469 1117.11 -11.0085 1182.62C-28.5617 1248.13 10.3145 1315.46 75.8239 1333.02C141.333 1350.57 208.669 1311.69 226.222 1246.19C243.775 1180.68 204.899 1113.34 139.39 1095.79ZM139.39 1095.79C91.4334 1143.74 91.4331 1221.5 139.389 1269.45C187.345 1317.41 265.098 1317.41 313.054 1269.45C361.01 1221.5 361.01 1143.74 313.054 1095.79C265.098 1047.83 187.346 1047.83 139.39 1095.79ZM-239.723 867.073C-257.276 801.564 -324.611 762.688 -390.121 780.241C-455.63 797.794 -494.506 865.13 -476.953 930.639C-459.4 996.148 -392.064 1035.02 -326.555 1017.47C-261.046 999.918 -222.169 932.583 -239.723 867.073ZM-239.723 867.073C-191.766 819.117 -191.766 741.365 -239.722 693.408C-287.679 645.452 -365.431 645.452 -413.387 693.408C-461.343 741.365 -461.343 819.117 -413.387 867.073C-365.431 915.029 -287.679 915.029 -239.723 867.073ZM-121.107 835.29C-138.661 769.781 -205.996 730.905 -271.505 748.458C-337.015 766.011 -375.891 833.347 -358.338 898.856C-340.785 964.365 -273.449 1003.24 -207.94 985.688C-142.43 968.135 -103.554 900.8 -121.107 835.29ZM-121.107 835.29C-73.1513 787.334 -73.1511 709.582 -121.107 661.626C-169.063 613.669 -246.816 613.669 -294.772 661.626M-121.107 835.29C-169.064 883.247 -246.816 883.246 -294.772 835.29C-342.728 787.334 -342.728 709.582 -294.772 661.626M-207.94 748.458C-225.493 682.949 -292.828 644.073 -358.338 661.626C-423.847 679.179 -462.723 746.514 -445.17 812.024C-427.617 877.533 -360.281 916.409 -294.772 898.856C-229.263 881.303 -190.387 813.967 -207.94 748.458ZM-207.94 748.458C-159.984 700.502 -159.983 622.749 -207.94 574.793C-255.896 526.837 -333.648 526.837 -381.604 574.793C-429.56 622.749 -429.56 700.502 -381.604 748.458C-333.648 796.414 -255.896 796.414 -207.94 748.458ZM-271.505 985.688C-289.059 920.179 -356.394 881.303 -421.903 898.856C-487.413 916.409 -526.289 983.745 -508.736 1049.25C-491.183 1114.76 -423.847 1153.64 -358.338 1136.09C-292.828 1118.53 -253.952 1051.2 -271.505 985.688ZM-326.555 780.241C-344.108 714.732 -411.444 675.855 -476.953 693.409C-542.462 710.962 -581.338 778.297 -563.785 843.807C-546.232 909.316 -478.897 948.192 -413.387 930.639C-347.878 913.086 -309.002 845.75 -326.555 780.241ZM-326.555 780.241C-278.599 732.285 -278.599 654.532 -326.555 606.576C-374.511 558.62 -452.263 558.62 -500.219 606.576C-548.176 654.532 -548.176 732.285 -500.219 780.241C-452.263 828.197 -374.511 828.197 -326.555 780.241ZM-176.157 629.843C-128.201 581.887 -128.201 504.134 -176.157 456.178C-224.113 408.222 -301.865 408.222 -349.821 456.178C-397.778 504.134 -397.778 581.887 -349.821 629.843C-301.865 677.799 -224.113 677.799 -176.157 629.843ZM-57.5416 598.06C-9.5854 550.104 -9.5854 472.351 -57.5416 424.395C-105.498 376.439 -183.25 376.439 -231.206 424.395C-279.162 472.351 -279.162 550.104 -231.206 598.06C-183.25 646.016 -105.498 646.016 -57.5416 598.06ZM-57.5416 598.06C7.96777 615.613 75.3029 576.737 92.8561 511.228C110.409 445.719 71.5331 378.383 6.0238 360.83C-59.4855 343.277 -126.821 382.153 -144.374 447.662C-161.927 513.172 -123.051 580.507 -57.5416 598.06ZM-294.772 661.626C-246.816 613.669 -246.816 535.917 -294.772 487.961C-342.728 440.005 -420.48 440.005 -468.437 487.961C-516.393 535.917 -516.393 613.669 -468.437 661.626C-420.48 709.582 -342.728 709.582 -294.772 661.626ZM61.0733 566.277C126.583 583.831 193.918 544.954 211.471 479.445C229.024 413.936 190.148 346.6 124.639 329.047C59.1296 311.494 -8.20586 350.37 -25.759 415.879C-43.3122 481.389 -4.43604 548.724 61.0733 566.277ZM61.0733 566.277C78.6265 631.787 145.962 670.663 211.471 653.11C276.98 635.556 315.857 568.221 298.303 502.712C280.75 437.202 213.415 398.326 147.905 415.879C82.3961 433.432 43.5201 500.768 61.0733 566.277ZM147.906 653.11C213.415 670.663 280.75 631.787 298.304 566.277C315.857 500.768 276.981 433.433 211.471 415.879C145.962 398.326 78.6265 437.202 61.0733 502.712C43.5201 568.221 82.3963 635.556 147.906 653.11ZM147.906 653.11C165.459 718.619 232.794 757.495 298.303 739.942C363.813 722.389 402.689 655.053 385.136 589.544C367.583 524.035 300.247 485.158 234.738 502.712C169.228 520.265 130.352 587.6 147.906 653.11ZM179.688 534.495C245.198 552.048 312.533 513.172 330.086 447.662C347.64 382.153 308.763 314.817 243.254 297.264C177.745 279.711 110.409 318.587 92.8561 384.097C75.303 449.606 114.179 516.941 179.688 534.495ZM179.688 534.495C197.242 600.004 264.577 638.88 330.086 621.327C395.596 603.774 434.472 536.438 416.919 470.929C399.365 405.419 332.03 366.543 266.521 384.096C201.011 401.65 162.135 468.985 179.688 534.495ZM234.738 739.942C252.291 805.451 319.626 844.327 385.136 826.774C450.645 809.221 489.521 741.886 471.968 676.376C454.415 610.867 387.079 571.991 321.57 589.544C256.061 607.097 217.185 674.433 234.738 739.942ZM234.738 739.942C186.782 787.898 186.782 865.65 234.738 913.607C282.694 961.563 360.446 961.563 408.402 913.607C456.359 865.65 456.359 787.898 408.402 739.942C360.446 691.986 282.694 691.986 234.738 739.942ZM116.123 771.725C133.676 837.234 201.011 876.11 266.521 858.557C332.03 841.004 370.906 773.669 353.353 708.159C335.8 642.65 268.464 603.774 202.955 621.327C137.446 638.88 98.5694 706.215 116.123 771.725ZM116.123 771.725C68.1664 819.681 68.1665 897.433 116.123 945.389C164.079 993.346 241.831 993.346 289.787 945.389M116.123 771.725C164.079 723.769 241.831 723.769 289.787 771.725C337.743 819.681 337.743 897.433 289.787 945.389M202.955 858.557C220.508 924.066 287.844 962.943 353.353 945.389C418.862 927.836 457.738 860.501 440.185 794.991C422.632 729.482 355.297 690.606 289.787 708.159C224.278 725.712 185.402 793.048 202.955 858.557ZM202.955 858.557C154.999 906.513 154.999 984.266 202.955 1032.22C250.911 1080.18 328.663 1080.18 376.62 1032.22C424.576 984.266 424.576 906.513 376.62 858.557C328.663 810.601 250.911 810.601 202.955 858.557ZM266.521 621.327C284.074 686.836 351.409 725.712 416.919 708.159C482.428 690.606 521.304 623.271 503.751 557.761C486.198 492.252 418.862 453.376 353.353 470.929C287.844 488.482 248.967 555.817 266.521 621.327ZM321.57 826.774C339.123 892.284 406.459 931.16 471.968 913.607C537.477 896.053 576.354 828.718 558.8 763.209C541.247 697.699 473.912 658.823 408.402 676.376C342.893 693.93 304.017 761.265 321.57 826.774ZM321.57 826.774C273.614 874.73 273.614 952.483 321.57 1000.44C369.526 1048.4 447.279 1048.4 495.235 1000.44C543.191 952.483 543.191 874.73 495.235 826.774C447.279 778.818 369.526 778.818 321.57 826.774ZM289.787 945.389C241.831 993.346 241.831 1071.1 289.787 1119.05C337.743 1167.01 415.496 1167.01 463.452 1119.05C511.408 1071.1 511.408 993.346 463.452 945.389C415.496 897.433 337.743 897.433 289.787 945.389ZM133.011 59.675C85.0548 11.7189 85.0548 -66.0334 133.011 -113.99C180.967 -161.946 258.719 -161.946 306.676 -113.99C354.632 -66.0334 354.632 11.7189 306.676 59.6751C258.719 107.631 180.967 107.631 133.011 59.675ZM77.9615 -145.772C30.0053 -193.729 30.0053 -271.481 77.9615 -319.437C125.918 -367.393 203.67 -367.393 251.626 -319.437C299.582 -271.481 299.582 -193.729 251.626 -145.772C203.67 -97.8162 125.918 -97.8163 77.9615 -145.772ZM283.409 -327.953C300.962 -393.462 368.297 -432.338 433.807 -414.785C499.316 -397.232 538.192 -329.897 520.639 -264.387C503.086 -198.878 435.75 -160.002 370.241 -177.555C304.732 -195.108 265.855 -262.444 283.409 -327.953ZM1240.01 865.675C1192.05 817.719 1192.05 739.967 1240.01 692.01C1287.97 644.054 1365.72 644.054 1413.68 692.01C1461.63 739.967 1461.63 817.719 1413.68 865.675C1365.72 913.631 1287.97 913.631 1240.01 865.675ZM1184.96 660.228C1137.01 612.271 1137.01 534.519 1184.96 486.563C1232.92 438.607 1310.67 438.607 1358.63 486.563C1406.58 534.519 1406.58 612.271 1358.63 660.228C1310.67 708.184 1232.92 708.184 1184.96 660.228ZM1390.41 478.047C1407.96 412.538 1475.3 373.662 1540.81 391.215C1606.32 408.768 1645.19 476.103 1627.64 541.613C1610.09 607.122 1542.75 645.998 1477.24 628.445C1411.73 610.892 1372.86 543.556 1390.41 478.047ZM1106.01 130.675C1058.05 82.7189 1058.05 4.96662 1106.01 -42.9895C1153.97 -90.9457 1231.72 -90.9457 1279.68 -42.9895C1327.63 4.96666 1327.63 82.719 1279.68 130.675C1231.72 178.631 1153.97 178.631 1106.01 130.675ZM1050.96 -74.7724C1003.01 -122.729 1003.01 -200.481 1050.96 -248.437C1098.92 -296.393 1176.67 -296.393 1224.63 -248.437C1272.58 -200.481 1272.58 -122.729 1224.63 -74.7724C1176.67 -26.8162 1098.92 -26.8163 1050.96 -74.7724ZM1256.41 -256.953C1273.96 -322.462 1341.3 -361.338 1406.81 -343.785C1472.32 -326.232 1511.19 -258.897 1493.64 -193.387C1476.09 -127.878 1408.75 -89.0018 1343.24 -106.555C1277.73 -124.108 1238.86 -191.444 1256.41 -256.953ZM504.011 731.675C456.055 683.719 456.055 605.967 504.011 558.01C551.967 510.054 629.719 510.054 677.676 558.01C725.632 605.967 725.632 683.719 677.676 731.675C629.719 779.631 551.967 779.631 504.011 731.675ZM448.962 526.228C401.005 478.271 401.005 400.519 448.962 352.563C496.918 304.607 574.67 304.607 622.626 352.563C670.582 400.519 670.582 478.271 622.626 526.228C574.67 574.184 496.918 574.184 448.962 526.228ZM654.409 344.047C671.962 278.538 739.297 239.662 804.807 257.215C870.316 274.768 909.192 342.103 891.639 407.613C874.086 473.122 806.75 511.998 741.241 494.445C675.732 476.892 636.856 409.556 654.409 344.047ZM-262.989 716.675C-310.945 668.719 -310.945 590.967 -262.989 543.01C-215.033 495.054 -137.281 495.054 -89.3244 543.01C-41.3682 590.967 -41.3682 668.719 -89.3244 716.675C-137.281 764.631 -215.033 764.631 -262.989 716.675ZM-318.039 511.228C-365.995 463.271 -365.995 385.519 -318.039 337.563C-270.082 289.607 -192.33 289.607 -144.374 337.563C-96.4177 385.519 -96.4177 463.271 -144.374 511.228C-192.33 559.184 -270.082 559.184 -318.039 511.228ZM-112.591 329.047C-95.0382 263.538 -27.7027 224.662 37.8066 242.215C103.316 259.768 142.192 327.103 124.639 392.613C107.086 458.122 39.7503 496.998 -25.759 479.445C-91.2684 461.892 -130.145 394.556 -112.591 329.047Z" stroke="url(#paint0_linear_391_158)" stroke-opacity="0.2"/>
<defs>
<linearGradient id="paint0_linear_391_158" x1="749.008" y1="-419" x2="749.008" y2="1518.02" gradientUnits="userSpaceOnUse">
<stop stop-color="white" stop-opacity="0.2"/>
<stop offset="0.365385" stop-color="white" stop-opacity="0.6"/>
<stop offset="0.711538" stop-color="white" stop-opacity="0.1"/>
</linearGradient>
</defs>
</svg>
