<svg width="76" height="45" viewBox="0 0 76 45" fill="none" xmlns="http://www.w3.org/2000/svg">
<path d="M44.145 43.6378C43.935 43.7187 43.394 43.8954 42.5219 44.168C41.665 44.4474 40.4213 44.6284 38.7907 44.711C37.1712 44.7893 35.5881 44.7647 34.0416 44.6373C28.4816 43.903 14.1864 37.711 12.2917 36.4321C11.7351 35.9821 10.8233 35.396 9.55625 34.6736C9.07074 34.4131 8.78654 34.2592 8.70365 34.2118L8.56155 34.1585L8.7747 34.2651C8.67996 34.2532 8.56747 34.2059 8.43721 34.123C7.93986 33.9572 7.43658 33.8269 6.92739 33.7322L6.8741 33.7145L7.12278 33.75C6.98068 33.75 6.79121 33.7322 6.55438 33.6967C6.0215 33.6967 5.74322 33.7085 5.71954 33.7322H5.63073L5.75506 33.7145H5.89716C5.82611 33.7145 5.78467 33.7204 5.77283 33.7322C5.67809 33.7322 5.43534 33.7855 5.04456 33.8921C5.03272 33.9039 4.97943 33.9276 4.8847 33.9631L4.97351 33.9098C4.9972 33.9098 5.04456 33.8921 5.11561 33.8565C5.11561 33.8684 5.10377 33.8802 5.08009 33.8921C5.06825 33.8921 4.83141 34.0164 4.36959 34.2651L4.6005 34.1052L4.47616 34.194C4.33406 34.3125 4.25117 34.3953 4.22749 34.4427C4.15644 34.5138 4.10907 34.5611 4.08538 34.5848C4.07354 34.6085 4.0617 34.6203 4.04986 34.6203L4.20972 34.4249C4.1742 34.4723 4.15051 34.5019 4.13867 34.5138C4.13867 34.5256 4.11499 34.5552 4.06762 34.6026L3.73013 35.1887C3.73013 35.1769 3.73605 35.1651 3.7479 35.1532C3.75974 35.1295 3.76566 35.1059 3.76566 35.0822C3.7775 35.0585 3.79526 35.0348 3.81895 35.0111L3.83671 34.9756L3.78342 35.0822L3.62356 35.6683C3.64724 35.5025 3.65908 35.4197 3.65908 35.4197L3.67685 35.3841C3.67685 35.4315 3.67093 35.4729 3.65908 35.5085V35.9348C3.6354 35.8874 3.62356 35.846 3.62356 35.8104L3.6058 35.7394L3.64132 35.7927C3.65316 35.84 3.65908 35.8933 3.65908 35.9525C3.69461 36.0709 3.71829 36.142 3.73013 36.1657C3.74198 36.1894 3.7479 36.219 3.7479 36.2545C3.73605 36.2545 3.71237 36.2071 3.67685 36.1124L3.64132 36.0058C3.70053 36.0769 3.7479 36.1716 3.78342 36.29C3.80711 36.3492 3.82487 36.3848 3.83671 36.3966C3.86039 36.4084 3.87816 36.4262 3.89 36.4499C3.87816 36.4262 3.86631 36.4084 3.85447 36.3966C3.84263 36.3729 3.82487 36.3492 3.80118 36.3255L3.7479 36.29L3.76566 36.3078C3.82487 36.367 3.86631 36.3966 3.89 36.3966L3.92552 36.4144C3.90184 36.4144 3.86631 36.4025 3.81895 36.3788C3.77158 36.3433 3.74198 36.3137 3.73013 36.29L3.80118 36.3255C3.90776 36.3729 3.96105 36.4084 3.96105 36.4321L3.71237 36.29L3.69461 36.3078H3.73013C3.80118 36.3433 3.88408 36.3611 3.97881 36.3611L3.99657 36.3788L3.73013 36.3433H3.83671C3.87223 36.3551 4.01433 36.3611 4.26301 36.3611C4.28669 36.3492 4.33406 36.3433 4.40511 36.3433C4.39327 36.3551 4.35774 36.3611 4.29854 36.3611L4.19196 36.3788L4.26301 36.3433C4.60642 36.2723 4.94391 36.1775 5.27548 36.0591L5.34653 36.0413C5.41758 36.0058 5.46494 35.9881 5.48863 35.9881H5.47086C5.37613 36.0354 5.311 36.065 5.27548 36.0769H5.23995C6.03334 35.769 6.85042 35.319 7.69118 34.7269L7.77999 34.6559H7.79776L7.63789 34.7802C7.63789 34.7684 7.63789 34.7624 7.63789 34.7624C7.64974 34.7624 7.66158 34.7565 7.67342 34.7447C7.6971 34.721 7.72079 34.7032 7.74447 34.6914C7.92209 34.5611 8.16485 34.3657 8.47273 34.1052C9.30165 33.371 10.0714 32.5717 10.7819 31.7073L10.9417 31.5119V31.5297L10.7819 31.7073L10.8884 31.5829C10.9595 31.4764 11.0365 31.3757 11.1194 31.281C12.7417 29.114 17.0619 17.0639 19.1105 13.6772C21.0525 10.4799 22.811 7.74447 24.386 5.47086C25.8307 3.36304 27.3168 1.89467 28.8444 1.06575C29.7917 0.568401 30.8871 0.319726 32.1304 0.319726C33.587 0.402618 34.7001 0.929573 35.4698 1.90059C36.05 2.72951 36.3402 3.6058 36.3402 4.52945C36.3402 5.05048 36.2454 5.58928 36.056 6.14584C35.7126 7.15238 35.2389 8.0938 34.635 8.97008C33.3797 10.7819 31.8107 12.2562 29.9279 13.393C28.0451 14.5179 26.026 15.2699 23.8709 15.6488C23.184 15.7909 22.5031 15.862 21.8282 15.862C20.3716 15.862 18.9506 15.5304 17.5652 14.8672C15.706 13.9081 14.3561 12.4693 13.5153 10.551C13.1008 9.57993 12.8936 8.56747 12.8936 7.51356C12.8936 6.37675 13.166 5.22219 13.7107 4.04986C14.6699 2.09598 16.1856 0.76971 18.2579 0.0710502C18.4237 0.0236834 18.5895 0 18.7552 0C19.0631 0 19.3888 0.118417 19.7322 0.355251C20.0874 0.580243 20.3361 0.923652 20.4782 1.38548C20.5256 1.5631 20.5493 1.73481 20.5493 1.90059C20.5493 2.20848 20.4368 2.53412 20.2118 2.87753C19.9868 3.2091 19.6375 3.45778 19.1638 3.62356L18.8973 3.71237L19.0394 3.65908L18.9151 3.71237C18.6901 3.83079 18.471 3.96105 18.2579 4.10315C18.2224 4.13867 18.1809 4.16828 18.1336 4.19196L18.3467 4.01433C18.3467 4.02618 18.3349 4.04394 18.3112 4.06762C18.2993 4.07946 18.2816 4.09131 18.2579 4.10315C18.2342 4.11499 18.2164 4.12683 18.2046 4.13867C17.8494 4.4584 17.6303 4.67747 17.5474 4.79589L17.4586 4.90246L17.4763 4.86694C17.4763 4.8551 17.5059 4.81957 17.5652 4.76036L17.6362 4.67155L17.5296 4.81365C17.3046 5.12153 17.1033 5.44718 16.9257 5.79059L16.8724 5.93269L16.979 5.70178V5.66625L16.8547 5.96821C16.7718 6.20505 16.6889 6.50701 16.606 6.8741C16.606 6.92147 16.6001 6.98068 16.5882 7.05173C16.5764 7.11094 16.5645 7.14054 16.5527 7.14054L16.5705 7.10502C16.5705 7.09318 16.5705 7.06357 16.5705 7.0162C16.5823 6.957 16.5941 6.91555 16.606 6.89187V6.92739C16.5941 6.95108 16.5882 7.00436 16.5882 7.08726L16.5705 7.15831L16.5527 7.44251L16.5705 8.04643C16.5586 8.02275 16.5527 7.96354 16.5527 7.86881L16.5705 7.99314C16.606 8.2655 16.6829 8.57339 16.8014 8.9168C16.8369 8.97601 16.8606 9.04113 16.8724 9.11218L16.7658 8.86351L16.8369 9.00561C16.9671 9.33718 17.1507 9.66874 17.3875 10.0003L17.4408 10.0891C17.4171 10.0773 17.3994 10.0654 17.3875 10.0536C17.3875 10.0418 17.3698 10.0122 17.3342 9.96479C17.3579 9.98847 17.5 10.1543 17.7605 10.4621C18.0329 10.7582 18.2638 10.9773 18.4533 11.1194L18.2401 10.9417C18.2401 10.9536 18.252 10.9713 18.2757 10.995C18.2993 11.0069 18.323 11.0187 18.3467 11.0305C18.3704 11.0424 18.3882 11.0542 18.4 11.0661C18.7552 11.3266 19.1283 11.5575 19.519 11.7588L19.7144 11.8476L19.6078 11.7943C19.7263 11.8417 19.9749 11.9246 20.3539 12.043C20.5552 12.1022 20.6914 12.1318 20.7624 12.1318C20.8098 12.1555 20.8868 12.1673 20.9933 12.1673L20.7624 12.1318C20.7743 12.1437 20.8216 12.1496 20.9045 12.1496C20.9756 12.1851 21.2657 12.2029 21.7749 12.2029C22.0236 12.2029 22.2722 12.191 22.5209 12.1673L22.7341 12.1496H22.6452C22.5979 12.1733 22.5446 12.1851 22.4854 12.1851L22.7163 12.1496C23.6992 11.9838 24.7708 11.6996 25.9313 11.297L26.2866 11.1549C26.1918 11.2022 26.1326 11.2259 26.1089 11.2259L26.0557 11.2437C26.1267 11.2082 26.1741 11.1904 26.1978 11.1904C27.074 10.8233 27.903 10.3733 28.6845 9.84045L29.0398 9.57401H29.0575L28.9865 9.6273C29.8154 8.96416 30.5022 8.31879 31.0469 7.69118L31.0825 7.63789C31.1535 7.56684 31.189 7.5254 31.189 7.51356L31.1002 7.63789L31.0292 7.70894L31.2246 7.46027C31.639 6.91555 32.0061 6.31754 32.3258 5.66625L32.3791 5.52415H32.3969L32.3436 5.61296C32.3081 5.68401 32.2903 5.73138 32.2903 5.75506L32.2725 5.79059L32.2903 5.7373C32.4206 5.47678 32.539 5.12153 32.6456 4.67155C32.6574 4.65971 32.6633 4.63602 32.6633 4.6005C32.6633 4.56497 32.6692 4.52945 32.6811 4.49392L32.6633 4.76036C32.6515 4.76036 32.6456 4.7426 32.6456 4.70707C32.6574 4.64787 32.6633 4.49984 32.6633 4.26301V4.19196L32.6811 4.38735L32.6988 4.42287C32.687 4.41103 32.6811 4.39327 32.6811 4.36959C32.6811 4.3459 32.6752 4.32814 32.6633 4.3163L32.6278 4.10315L32.6988 4.33406C32.6633 4.29854 32.6396 4.26893 32.6278 4.24525C32.6278 4.20972 32.6278 4.18012 32.6278 4.15644L32.61 4.13867L32.7521 4.35182L32.4857 4.04986C32.4975 4.04986 32.5094 4.0617 32.5212 4.08538C32.5449 4.09723 32.5627 4.10907 32.5745 4.12091C32.5863 4.12091 32.6278 4.15051 32.6988 4.20972H32.6456L32.3436 4.01433L32.4502 4.06762C32.5094 4.10315 32.5508 4.12091 32.5745 4.12091L32.61 4.13867C32.5982 4.12683 32.5627 4.10907 32.5035 4.08538C32.4442 4.0617 32.3791 4.04394 32.3081 4.0321C32.237 4.00841 32.1719 3.99065 32.1127 3.97881C32.0535 3.96697 32.0179 3.96105 32.0061 3.96105H32.1304C32.1541 3.97289 32.1778 3.97881 32.2015 3.97881C32.237 3.97881 32.2607 3.98473 32.2725 3.99657C32.1896 3.99657 32.1423 3.99065 32.1304 3.97881H31.562L31.3667 3.99657L31.4022 3.97881C31.4732 3.97881 31.5206 3.97289 31.5443 3.96105H31.6331L31.5088 3.99657C31.414 3.99657 31.2423 4.03802 30.9936 4.12091L30.7805 4.19196C30.8397 4.15644 30.8752 4.13867 30.8871 4.13867C30.8989 4.13867 30.9403 4.12091 31.0114 4.08538L30.6206 4.28077C30.2654 4.47024 30.0522 4.6005 29.9812 4.67155L29.8746 4.7426L29.8924 4.72484C29.9042 4.72484 29.9456 4.68931 30.0167 4.61826L30.0877 4.58274L29.9456 4.68931C29.6259 4.92615 29.2588 5.26955 28.8444 5.71954C28.5128 6.07479 28.3293 6.28794 28.2937 6.35899L28.1872 6.46557L28.3648 6.27018H28.347L28.1516 6.51885C26.8017 8.33063 24.8182 11.368 22.2012 15.631L17.0236 28.1536C16.0526 30.233 15.4179 31.6481 14.2811 33.1993C13.1443 34.7388 11.8299 36.1006 10.3378 37.2847C9.54441 37.9242 8.69773 38.4748 7.79776 38.9366C6.47149 39.6471 5.22219 40.0024 4.04986 40.0024C2.79464 40.0024 1.81178 39.5998 1.10128 38.7945C0.367093 37.9183 0 36.9117 0 35.7749C0 34.5789 0.361172 33.4895 1.08352 32.5066C1.85323 31.5001 2.83609 30.7896 4.0321 30.3751C4.77812 30.1383 5.52415 30.0198 6.27018 30.0198C6.69648 30.0198 7.31225 30.0909 8.11748 30.233C9.71611 30.5172 11.747 31.5297 14.21 33.2704C16.2823 34.6677 31.5889 41.1747 34.635 41.0394L35.103 41.0684C35.2152 41.0633 35.2735 41.0662 35.2777 41.0772L35.2943 41.0709C35.29 41.0598 35.2824 41.0564 35.2713 41.0607C35.2603 41.0649 35.2416 41.0658 35.2152 41.0632C35.1889 41.0607 35.1646 41.0637 35.1425 41.0722C35.1162 41.0697 35.0953 41.065 35.08 41.0582L35.9804 41.073C37.2923 41.1513 38.6653 41.0918 40.0994 40.8945C40.6104 40.8373 40.9376 40.781 41.0813 40.7256L41.3325 40.6859L41.3095 40.6757C41.2543 40.697 41.2135 40.7064 41.1871 40.7039L41.154 40.7166C41.2024 40.7107 41.2377 40.7034 41.2598 40.6949C41.293 40.6821 41.3227 40.677 41.3491 40.6796C41.8897 40.5347 42.4142 40.3643 42.9225 40.1685C43.4001 39.9591 43.6479 39.8446 43.6657 39.825C43.7431 39.7952 43.7907 39.7705 43.8085 39.7509L43.8582 39.7318L43.7155 39.8058C43.7707 39.7846 43.8162 39.7543 43.8519 39.7152L43.9016 39.6961C44.6061 39.285 45.0599 38.9642 45.263 38.7337C45.3165 38.675 45.3777 38.6197 45.4465 38.5678L45.2796 38.7273L45.43 38.5742C45.7418 38.2637 45.964 38.0004 46.0965 37.7844L46.3781 37.4284L46.2634 37.6249L46.2469 37.6312L46.5335 37.1401C46.7789 36.6902 47.1116 36.3844 47.5315 36.2226L47.8961 36.0821C48.1214 36.008 48.4802 36.0664 48.9726 36.2574C49.4054 36.4587 49.7113 36.7913 49.8901 37.2554L50.0434 37.6532C50.126 37.9006 50.0633 38.2483 49.8553 38.6965C49.2718 39.7842 48.5242 40.7258 47.6125 41.5213C46.5605 42.4469 45.4047 43.1524 44.145 43.6378Z" fill="black"/>
<path d="M31.8246 36.1479C29.5273 36.1479 27.6326 35.5914 26.1405 34.4782C24.5182 33.3059 23.7071 31.6481 23.7071 29.5047C23.7071 29.1732 23.7663 28.6225 23.8847 27.8528C23.9913 27.0713 24.311 26.1121 24.8439 24.9753C25.661 23.0688 26.8688 21.4642 28.4674 20.1616C29.8174 19.0604 31.2798 18.5097 32.8548 18.5097C33.7666 18.5097 34.6547 18.711 35.5192 19.1136C37.0349 19.9307 37.7928 21.257 37.7928 23.0924C37.7928 24.0753 37.5145 25.0049 36.9579 25.8812C36.2948 26.8522 35.46 27.5923 34.4534 28.1015C33.1153 28.7765 31.6884 29.114 30.1726 29.114C28.3964 29.114 26.8451 28.6521 25.5189 27.7285C24.9505 27.2903 24.6663 26.7811 24.6663 26.2009C24.6663 25.893 24.7491 25.5614 24.9149 25.2062C25.2583 24.6141 25.7912 24.3181 26.5136 24.3181C26.8333 24.3181 27.1412 24.4069 27.4372 24.5845C27.7214 24.8095 27.9523 24.9516 28.1299 25.0108L28.0944 24.993C28.3194 25.147 28.7635 25.2772 29.4266 25.3838L29.551 25.4193L29.5154 25.4016C29.4325 25.4016 29.3792 25.3957 29.3556 25.3838H29.3023C29.4562 25.3838 29.5924 25.3957 29.7108 25.4193C29.9121 25.4312 30.1194 25.4371 30.3325 25.4371C30.5457 25.4371 30.7588 25.4253 30.972 25.4016H31.0252L31.1318 25.3838C31.3923 25.3365 31.8423 25.2121 32.4818 25.0108L32.2864 25.0641C32.393 25.0641 32.6416 24.9457 33.0324 24.7088C33.1508 24.5904 33.2396 24.5312 33.2988 24.5312L33.1035 24.6733C33.364 24.472 33.5534 24.3003 33.6719 24.1582L33.814 24.0161C33.8021 24.0279 33.7903 24.0457 33.7784 24.0694C33.7666 24.0931 33.7548 24.1108 33.7429 24.1227C33.7429 24.1227 33.7192 24.1523 33.6719 24.2115L33.7251 24.1049C33.808 23.9865 33.885 23.8622 33.9561 23.7319C33.9679 23.7319 33.9738 23.726 33.9738 23.7141C33.9857 23.6905 33.9916 23.6727 33.9916 23.6609C34.0034 23.649 34.0271 23.6076 34.0626 23.5365L33.9916 23.7497L34.0982 23.3589C34.0982 23.2997 34.1159 23.2345 34.1515 23.1635L34.1159 23.4477C34.1159 23.353 34.1218 23.276 34.1337 23.2168C34.1337 22.9444 34.1396 22.8023 34.1515 22.7905L34.187 22.8615V23.0214H34.1692C34.1692 22.974 34.1515 22.9148 34.1159 22.8438C34.1159 22.7609 34.0922 22.6543 34.0449 22.524C34.0686 22.6069 34.0982 22.6839 34.1337 22.755C34.1218 22.7431 34.1041 22.7194 34.0804 22.6839C34.0567 22.6365 34.039 22.5951 34.0271 22.5596C34.0153 22.524 33.9975 22.4944 33.9738 22.4708C33.962 22.4352 33.9561 22.4116 33.9561 22.3997C33.9561 22.4116 33.9679 22.4352 33.9916 22.4708C34.0153 22.5063 34.033 22.5418 34.0449 22.5773C34.0686 22.601 34.0863 22.6129 34.0982 22.6129L34.0804 22.5773C34.0567 22.5655 34.033 22.5477 34.0093 22.524C33.9857 22.4885 33.9679 22.4648 33.9561 22.453C33.9442 22.4412 33.9087 22.4116 33.8495 22.3642C33.9797 22.4589 34.0449 22.5122 34.0449 22.524L33.7607 22.3287C33.6896 22.305 33.6186 22.2695 33.5475 22.2221L33.7962 22.3642L33.6896 22.2931C33.4173 22.2221 33.2752 22.1866 33.2633 22.1866C33.2633 22.1747 33.2278 22.1629 33.1567 22.151L33.4232 22.1866C33.3403 22.1866 33.2692 22.1806 33.21 22.1688L32.8548 22.151C32.7364 22.151 32.5943 22.1629 32.4285 22.1866L32.6949 22.151C32.4107 22.1984 32.0851 22.2813 31.718 22.3997C31.7772 22.376 31.8246 22.3583 31.8601 22.3464C31.9074 22.3346 31.9371 22.3227 31.9489 22.3109C31.9134 22.3701 31.8009 22.4293 31.6114 22.4885L31.4338 22.5596C31.0312 22.7964 30.8121 22.9326 30.7766 22.9681H30.7588L30.9364 22.8438V22.8615C30.9246 22.8734 30.895 22.8971 30.8476 22.9326C30.8121 22.9563 30.7706 22.9918 30.7233 23.0392C30.6878 23.0747 30.6463 23.1102 30.5989 23.1457C30.2082 23.4773 29.8529 23.8326 29.5332 24.2115C29.474 24.2944 29.4444 24.3477 29.4444 24.3714L29.4799 24.3181C29.5036 24.2944 29.5391 24.2352 29.5865 24.1404C29.5273 24.2589 29.4503 24.3714 29.3556 24.4779C29.2135 24.6556 29.0358 24.9101 28.8227 25.2417C28.4674 25.822 28.2424 26.2483 28.1477 26.5206C28.0648 26.6272 28.0234 26.7101 28.0234 26.7693H28.0056L28.1122 26.5561C28.0885 26.5798 28.0056 26.793 27.8635 27.1956C27.6385 27.8114 27.4964 28.3146 27.4372 28.7054L27.3839 28.883V28.9363H27.3662L27.4017 28.7942L27.3484 29.4692C27.3484 29.6942 27.3543 29.8304 27.3662 29.8777C27.378 29.9133 27.3839 29.9547 27.3839 30.0021V30.0376C27.3721 30.0376 27.3662 29.9962 27.3662 29.9133C27.3662 29.9369 27.3662 29.9666 27.3662 30.0021C27.378 30.0258 27.3898 30.0672 27.4017 30.1264C27.4135 30.1738 27.4254 30.233 27.4372 30.304C27.4609 30.3751 27.4846 30.4461 27.5083 30.5172C27.5319 30.5764 27.5438 30.6119 27.5438 30.6238L27.4372 30.3573L27.4905 30.4994C27.5734 30.6652 27.674 30.8369 27.7925 31.0145L27.8457 31.1389H27.8635C27.8635 31.127 27.8576 31.1211 27.8457 31.1211C27.7865 31.0619 27.751 31.0264 27.7392 31.0145C27.7392 31.0027 27.7273 30.9731 27.7036 30.9257L27.7747 30.9968C27.8221 31.0441 27.8576 31.0915 27.8813 31.1389L28.3609 31.6007L28.3431 31.5829C28.3194 31.5829 28.2602 31.5356 28.1655 31.4408C28.1773 31.4408 28.2365 31.4764 28.3431 31.5474C28.4023 31.6066 28.5859 31.725 28.8937 31.9027C28.9529 31.9264 29.0062 31.956 29.0536 31.9915C29.172 32.027 29.2312 32.0566 29.2312 32.0803L28.9825 31.9737V31.956C28.9944 31.9678 29.0181 31.9796 29.0536 31.9915C29.101 32.0033 29.1365 32.0152 29.1602 32.027C29.2786 32.0744 29.4029 32.1158 29.5332 32.1513C29.995 32.3053 30.3325 32.3823 30.5457 32.3823L30.2437 32.3645C30.3266 32.3645 30.4036 32.3704 30.4746 32.3823C31.043 32.4415 31.4515 32.4711 31.7002 32.4711C32.3397 32.4711 32.7304 32.4592 32.8725 32.4355L33.0857 32.4L33.0502 32.4178L32.8015 32.4355L32.8903 32.4178C33.589 32.3349 34.3942 32.1395 35.306 31.8316C35.3297 31.8198 35.3593 31.8079 35.3948 31.7961C35.4422 31.7843 35.4718 31.7724 35.4836 31.7606C35.3652 31.8198 35.2942 31.8494 35.2705 31.8494L35.235 31.8671L35.3948 31.7961C35.7501 31.654 36.0994 31.4823 36.4428 31.281C36.9994 30.9613 37.325 30.754 37.4198 30.6593H37.4375L37.2244 30.8192C37.2244 30.7955 37.3073 30.7303 37.473 30.6238L37.8638 30.2863C38.4085 29.8008 38.7875 29.4041 39.0006 29.0962L38.823 29.2916L39.0717 29.0074C39.4506 28.4863 39.7467 27.989 39.9598 27.5153C40.019 27.3732 40.0664 27.2844 40.1019 27.2489C40.1137 27.2015 40.1256 27.1719 40.1374 27.1601L40.0664 27.3022C40.2322 26.8403 40.5223 26.4733 40.9367 26.2009C41.2209 26.047 41.517 25.97 41.8249 25.97C41.9907 25.97 42.1624 25.9937 42.34 26.041C42.8255 26.1713 43.1867 26.4614 43.4235 26.9114C43.5893 27.2193 43.6722 27.5272 43.6722 27.835C43.6722 28.0008 43.6426 28.1607 43.5834 28.3146C42.6952 30.6001 41.2565 32.4355 39.2671 33.821C37.0408 35.3723 34.56 36.1479 31.8246 36.1479Z" fill="black"/>
<path d="M56.3902 36.3611H55.3244C54.6376 36.3611 53.7199 36.0058 52.5712 35.2953C51.2568 34.4072 50.3627 33.1993 49.8891 31.6718C49.5457 30.6415 49.2615 29.5935 49.0365 28.5278C48.7878 27.5331 48.5746 26.6509 48.397 25.8812C47.947 23.9865 47.6628 22.9207 47.5444 22.6839L47.4378 22.3464L47.5444 22.5596H47.5266L47.4911 22.4708C47.4082 22.3405 47.3431 22.2339 47.2957 22.151C47.2602 22.0563 47.2306 21.9971 47.2069 21.9734L47.2247 22.0622C47.2602 22.1333 47.3017 22.1688 47.349 22.1688C47.3253 22.1688 47.3017 22.1392 47.278 22.08L47.1359 21.9379L47.2069 21.9912C47.278 22.0622 47.3194 22.0977 47.3313 22.0977C47.272 22.0741 47.2069 22.0385 47.1359 21.9912C47.0767 21.932 47.0293 21.9024 46.9938 21.9024H46.976L46.9938 21.9201C46.9938 21.932 47.0175 21.9497 47.0648 21.9734C47.124 21.9971 47.1773 22.0089 47.2247 22.0089C47.2128 22.0089 47.1951 22.0089 47.1714 22.0089C47.1477 21.9971 47.1181 21.9734 47.0826 21.9379H47.0471C47.0589 21.9497 47.1063 21.9556 47.1892 21.9556C47.2128 21.9675 47.2365 21.9734 47.2602 21.9734C47.2839 21.9734 47.3017 21.9793 47.3135 21.9912L47.1536 21.9734L47.0648 21.9912L47.3668 21.9556L47.278 21.9734V21.9912H47.3135C47.3372 21.9912 47.3549 21.9853 47.3668 21.9734C47.3905 21.9616 47.4142 21.9497 47.4378 21.9379C47.4615 21.926 47.4793 21.9083 47.4911 21.8846C47.4793 21.8846 47.4615 21.8905 47.4378 21.9024C47.426 21.9142 47.4082 21.926 47.3845 21.9379C47.3609 21.9497 47.3372 21.9616 47.3135 21.9734C47.3017 21.9853 47.2839 21.9971 47.2602 22.0089C47.2365 22.0089 47.2247 22.0149 47.2247 22.0267L47.2069 22.0445C47.2188 22.0445 47.2306 22.0445 47.2424 22.0445C47.2661 22.0326 47.2957 22.0208 47.3313 22.0089C47.3668 21.9853 47.3845 21.9497 47.3845 21.9024C47.3845 21.9142 47.3727 21.932 47.349 21.9556C47.2661 22.0385 47.1892 22.1037 47.1181 22.151C46.9642 22.2695 46.7747 22.4708 46.5497 22.755C46.4905 22.8379 46.4491 22.8793 46.4254 22.8793H46.4431L46.6208 22.6484L46.603 22.6839C46.5556 22.7313 46.5201 22.7786 46.4964 22.826C45.9872 23.5128 45.407 24.5963 44.7557 26.0766L44.2761 27.1068C43.9564 27.6752 43.4472 27.9594 42.7485 27.9594C42.0854 27.9594 41.5821 27.7166 41.2387 27.2311C41.0019 26.8996 40.8835 26.5443 40.8835 26.1654C40.8835 25.8338 40.9663 25.5022 41.1321 25.1707C41.3098 24.8391 41.4755 24.5016 41.6295 24.1582C42.8018 21.3399 44.1577 19.5103 45.6971 18.6696C46.2181 18.4446 46.7273 18.3321 47.2247 18.3321C48.6931 18.3321 49.8239 19.0663 50.6173 20.5346C50.9489 21.2215 51.1976 21.9438 51.3634 22.7017L51.7541 24.2115C51.8844 24.8154 52.0739 25.5674 52.3225 26.4673L53.0686 29.4514C53.1988 30.0198 53.3172 30.4402 53.4238 30.7126C53.4712 30.8073 53.5067 30.902 53.5304 30.9968L53.4416 30.8014V30.8192C53.4889 30.8547 53.5245 30.9198 53.5481 31.0145L53.6014 31.1389C53.7554 31.4468 53.8679 31.6362 53.9389 31.7073V31.725L53.8856 31.6362C53.8383 31.6125 53.8146 31.5829 53.8146 31.5474C53.9093 31.6422 54.0159 31.7606 54.1343 31.9027L54.3652 32.0981H54.3475C54.3356 32.0862 54.306 32.0625 54.2586 32.027C54.2231 31.9915 54.1994 31.9678 54.1876 31.956C54.1876 31.9441 54.1817 31.9382 54.1698 31.9382L54.4007 32.0981C54.4481 32.1454 54.5665 32.2224 54.756 32.329C54.7915 32.3408 54.8211 32.3586 54.8448 32.3823C54.8685 32.3941 54.8981 32.4119 54.9336 32.4355C54.9692 32.4474 54.9928 32.4592 55.0047 32.4711L54.9692 32.4533C54.9336 32.4533 54.8922 32.4415 54.8448 32.4178C54.8093 32.3823 54.7797 32.3645 54.756 32.3645C54.7442 32.3527 54.7323 32.3408 54.7205 32.329C54.8034 32.3763 54.8922 32.4119 54.9869 32.4355L55.0757 32.4711C55.5376 32.6132 55.8514 32.6842 56.0171 32.6842L55.9106 32.6487H55.6797L55.875 32.6665C55.9935 32.6783 56.2836 32.6842 56.7454 32.6842C56.8283 32.6842 56.8816 32.6783 56.9053 32.6665H56.9763C56.929 32.6901 56.852 32.702 56.7454 32.702L57.4381 32.5776C57.7342 32.4948 57.9296 32.4296 58.0243 32.3823L58.1131 32.3467V32.3645H58.0776C57.9473 32.4237 57.8704 32.4533 57.8467 32.4533L58.5394 32.0981L59.0012 31.8139C58.9657 31.8139 58.9065 31.8553 58.8236 31.9382L58.7881 31.956H58.8059C58.8769 31.8849 58.9243 31.8435 58.948 31.8316C58.9835 31.8079 59.0131 31.7843 59.0368 31.7606C59.3328 31.5119 59.6111 31.2336 59.8716 30.9257L60.0137 30.7836C59.9663 30.8547 59.9427 30.8902 59.9427 30.8902L59.8539 30.979L60.0137 30.7659C60.3453 30.3159 60.665 29.783 60.9729 29.1672C61.0084 29.0607 61.038 28.9955 61.0617 28.9719L60.9551 29.2028L61.0439 28.9896C61.3045 28.3502 61.5058 27.6989 61.6479 27.0357C61.79 26.5384 62.0801 26.1772 62.5182 25.9522C62.8143 25.8101 63.1222 25.7391 63.4419 25.7391C64.1642 25.7391 64.6853 26.047 65.005 26.6627C65.1471 26.9706 65.2181 27.2844 65.2181 27.6041C65.2181 27.7462 65.2063 27.8943 65.1826 28.0482C64.8392 29.5639 64.2471 30.9849 63.4064 32.3112C62.5656 33.6256 61.4643 34.6677 60.1025 35.4374C58.9539 36.0532 57.7164 36.3611 56.3902 36.3611ZM44.8267 36.1302C44.211 36.1302 43.7255 35.8815 43.3702 35.3841C43.1215 35.0644 42.9972 34.6973 42.9972 34.2829C42.9972 33.525 43.9741 32.2934 45.928 30.5882L45.9635 30.5527C49.5634 27.2963 53.2462 23.5365 57.0118 19.2735C57.3316 18.9419 57.7223 18.7761 58.1842 18.7761C58.2197 18.7761 58.3736 18.788 58.646 18.8117C58.9184 18.8235 59.2381 18.9952 59.6052 19.3268C59.9249 19.6584 60.0848 20.0373 60.0848 20.4636C60.0848 20.511 60.0729 20.6767 60.0492 20.9609C60.0374 21.2333 59.8657 21.553 59.5341 21.9201C58.4802 23.1161 57.4204 24.2944 56.3546 25.4549C53.9508 28.0482 51.4462 30.529 48.8411 32.8974L47.0648 34.5671C46.8043 34.8157 46.5556 35.0822 46.3188 35.3664C46.2951 35.3664 46.2714 35.3841 46.2477 35.4197C46.2359 35.4552 46.2241 35.4789 46.2122 35.4907C46.2122 35.4789 46.2181 35.467 46.23 35.4552C46.2418 35.4433 46.2537 35.4256 46.2655 35.4019C46.2892 35.3664 46.3069 35.3427 46.3188 35.3308C46.3306 35.3072 46.3662 35.2657 46.4254 35.2065L46.3898 35.242C45.9872 35.8341 45.4662 36.1302 44.8267 36.1302Z" fill="black"/>
<path d="M65.8754 36.2545C64.6675 36.2427 63.5781 35.8992 62.607 35.2243C61.3281 34.348 60.6887 33.0099 60.6887 31.2099C60.6887 30.0494 61.0439 28.4627 61.7544 26.4496L61.9143 25.97C62.6367 23.8266 63.4596 21.7247 64.3833 19.6643C64.4899 19.4511 64.6497 19.2735 64.8629 19.1314C65.23 18.9064 65.5971 18.7939 65.9642 18.7939C66.5918 18.7939 67.0832 19.0367 67.4385 19.5222C67.6634 19.8537 67.7759 20.209 67.7759 20.5879C67.7759 20.9313 67.6931 21.2629 67.5273 21.5826C67.5036 21.6063 67.4562 21.701 67.3852 21.8668L67.3496 21.9379L67.4562 21.7425L67.0299 22.7372C66.0707 24.9753 65.2477 27.3791 64.5609 29.9488C64.4662 30.3159 64.4011 30.6178 64.3655 30.8547C64.3655 30.7718 64.3774 30.683 64.4011 30.5882C64.4011 30.6948 64.3892 30.7718 64.3655 30.8192C64.3537 31.0086 64.3478 31.2277 64.3478 31.4764C64.3596 31.5237 64.3655 31.6007 64.3655 31.7073L64.3833 31.5829C64.3833 31.5119 64.3715 31.4764 64.3478 31.4764H64.33L64.4543 31.9915L64.4721 31.9382C64.4721 31.9264 64.4603 31.8967 64.4366 31.8494C64.4247 31.802 64.407 31.7724 64.3833 31.7606C64.3715 31.7606 64.3655 31.7665 64.3655 31.7783L64.3833 31.8139C64.3951 31.8494 64.407 31.879 64.4188 31.9027C64.4425 31.9264 64.4603 31.95 64.4721 31.9737C64.484 31.9856 64.5136 32.0388 64.5609 32.1336C64.5609 32.1099 64.5432 32.0685 64.5076 32.0092L64.4366 31.956V31.9737C64.6497 32.1869 64.7563 32.2994 64.7563 32.3112C64.7682 32.3231 64.7741 32.3349 64.7741 32.3467L64.7563 32.329C64.7445 32.329 64.7267 32.3231 64.703 32.3112C64.6912 32.2875 64.6793 32.2698 64.6675 32.2579C64.6557 32.2461 64.6261 32.2165 64.5787 32.1691L64.8096 32.2934C64.9399 32.3527 65.0524 32.4178 65.1471 32.4888L64.8984 32.3823C65.1352 32.477 65.3602 32.5362 65.5734 32.5599L65.6444 32.5954C65.455 32.5717 65.3602 32.554 65.3602 32.5421C65.4431 32.5421 65.4964 32.554 65.5201 32.5776H66.1773L66.3549 32.5599L66.2128 32.5776C66.3668 32.5776 66.6924 32.4948 67.1898 32.329L67.4029 32.2224L67.172 32.3467L67.6338 32.1158C68.0601 31.9027 68.3562 31.731 68.522 31.6007C68.593 31.5652 68.6285 31.5356 68.6285 31.5119V31.4941C68.593 31.4941 68.5457 31.5474 68.4864 31.654C68.522 31.5829 68.6167 31.5001 68.7706 31.4053L68.9305 31.2987C69.5818 30.7303 70.1502 30.1501 70.6357 29.558L70.7956 29.3626C71.5179 28.3679 72.1278 27.4324 72.6251 26.5561C72.9804 25.9877 73.5073 25.7035 74.206 25.7035C74.5257 25.7035 74.8395 25.7864 75.1474 25.9522C75.7158 26.3075 76 26.8226 76 27.4976C76 27.841 75.9171 28.1666 75.7513 28.4745C74.6737 30.4757 73.3001 32.252 71.6304 33.8033C69.8305 35.4137 67.9121 36.2308 65.8754 36.2545Z" fill="black"/>
<path d="M70.7577 10.4261C70.8186 10.4979 70.8694 10.5715 70.9075 10.6577C70.9136 10.6713 70.9197 10.6848 70.926 10.6988C71.0044 10.8831 71.0346 11.0587 71.0356 11.2568C71.0358 11.2668 71.036 11.2769 71.0362 11.2873C71.0389 11.4828 71.0062 11.6733 70.9736 11.8654C70.9715 11.8782 70.9694 11.891 70.9672 11.9041C70.9406 12.0634 70.9049 12.2134 70.8483 12.3647C70.8338 12.4047 70.8214 12.4452 70.809 12.4858C70.7919 12.5404 70.7748 12.5949 70.7565 12.649C70.753 12.6596 70.7494 12.6702 70.7458 12.6811C70.7335 12.711 70.72 12.7378 70.7043 12.766C70.6724 12.8241 70.6469 12.8841 70.6214 12.9453C70.5876 13.0253 70.5524 13.1027 70.5096 13.1784C70.4906 13.2131 70.4734 13.2483 70.4563 13.284C70.4043 13.3921 70.3452 13.4941 70.2817 13.5959C70.2645 13.6236 70.2475 13.6514 70.2305 13.6792C70.1105 13.8754 69.9876 14.0691 69.8485 14.2526C69.8266 14.2819 69.805 14.3114 69.7834 14.3411C69.6662 14.5018 69.5433 14.6568 69.4152 14.8091C69.408 14.8176 69.4009 14.8262 69.3935 14.835C69.212 15.0516 69.0219 15.2601 68.8252 15.4632C68.8176 15.471 68.81 15.4789 68.8022 15.487C68.6839 15.6097 68.561 15.7275 68.437 15.8446C68.4241 15.8568 68.4113 15.869 68.3984 15.8812C68.1501 16.1158 67.8895 16.3378 67.6191 16.5467C67.6011 16.5608 67.5833 16.5752 67.566 16.5902C67.4701 16.6724 67.3565 16.737 67.245 16.7962C67.2 16.8204 67.1727 16.8402 67.148 16.8848C67.1188 16.9313 67.097 16.9565 67.043 16.9748C66.9853 16.9827 66.9502 16.9755 66.9 16.9452C66.8216 16.8706 66.7777 16.7704 66.7334 16.6737C66.7267 16.6591 66.7267 16.6591 66.7199 16.6442C66.6756 16.5477 66.6326 16.4506 66.5897 16.3534C66.5159 16.1866 66.4418 16.0201 66.3608 15.8566C66.3556 15.8462 66.3504 15.8358 66.3451 15.825C66.2706 15.6746 66.1936 15.5255 66.115 15.3771C66.1016 15.3518 66.0883 15.3265 66.075 15.3013C66.0164 15.1898 65.9564 15.0791 65.8963 14.9685C65.8197 14.8277 65.7437 14.6866 65.6682 14.5453C65.6586 14.5272 65.6489 14.5092 65.6393 14.4911C65.4911 14.2149 65.3521 13.9334 65.2268 13.6462C65.219 13.6284 65.2112 13.6105 65.2033 13.5927C65.0987 13.3555 65.0048 13.1151 64.9337 12.8659C64.9268 12.8438 64.9199 12.8218 64.9129 12.7998C64.8266 12.5106 64.772 12.2152 64.7578 11.9137C64.7558 11.8845 64.7558 11.8845 64.7493 11.8486C64.7039 11.5259 64.7602 11.0977 64.9514 10.8306C64.9913 10.7844 65.0333 10.741 65.0773 10.6986C65.0857 10.6902 65.094 10.6817 65.1026 10.673C65.1095 10.6672 65.1164 10.6613 65.1235 10.6553C65.1317 10.6568 65.14 10.6582 65.1485 10.6597C65.1579 10.6423 65.1579 10.6423 65.1675 10.6245C65.4037 10.4827 65.6251 10.4834 65.8843 10.5468C66.1219 10.6161 66.3771 10.761 66.5575 10.9295C66.5753 10.9444 66.5931 10.9592 66.611 10.974C66.7704 11.1111 66.9079 11.2702 67.0367 11.4355C67.0454 11.4464 67.0542 11.4574 67.0632 11.4686C67.1557 11.584 67.2409 11.7029 67.3161 11.8301C67.3283 11.8501 67.3283 11.8501 67.3407 11.8706C67.5908 12.2841 67.7884 12.7437 67.9009 13.2134C67.9622 13.1357 67.9933 13.0465 68.0279 12.955C68.0604 12.8697 68.0934 12.7851 68.1313 12.7021C68.1668 12.6241 68.1976 12.5449 68.2279 12.4648C68.2853 12.3142 68.3512 12.1681 68.4191 12.022C68.4352 11.9869 68.4507 11.9515 68.466 11.916C68.5041 11.8298 68.548 11.7467 68.5923 11.6634C68.5987 11.6514 68.5987 11.6514 68.6052 11.6391C68.6674 11.5217 68.73 11.4051 68.8007 11.2925C68.8061 11.2838 68.8115 11.2751 68.817 11.2661C69.056 10.8822 69.363 10.4632 69.7789 10.257C69.7888 10.2519 69.7988 10.2468 69.8091 10.2415C70.1414 10.0824 70.5119 10.15 70.7577 10.4261ZM69.6969 10.7486C69.5555 10.8767 69.4338 11.0212 69.3235 11.1763C69.3052 11.202 69.2866 11.2275 69.2681 11.253C69.1807 11.3738 69.1 11.497 69.0262 11.6265C69.0199 11.6375 69.0137 11.6485 69.0072 11.6598C68.8788 11.8863 68.7712 12.1207 68.6674 12.3591C68.6581 12.3805 68.6581 12.3805 68.6486 12.4023C68.5803 12.5599 68.5163 12.7191 68.4536 12.879C68.4053 13.0018 68.3555 13.1239 68.3052 13.2458C68.3014 13.2549 68.2977 13.264 68.2938 13.2734C68.2499 13.38 68.2049 13.486 68.1576 13.5912C68.15 13.6082 68.1425 13.6252 68.135 13.6422C68.1212 13.6735 68.1074 13.7047 68.0934 13.7359C68.0809 13.764 68.0685 13.7922 68.0562 13.8205C68.0229 13.8956 67.9905 13.9517 67.919 13.9969C67.8572 14.009 67.802 13.9992 67.7422 13.9807C67.6818 13.9397 67.657 13.8916 67.6409 13.8222C67.6345 13.7846 67.6288 13.7469 67.6233 13.7092C67.5677 13.3276 67.4664 12.9341 67.3015 12.5839C67.2897 12.5571 67.278 12.5302 67.2663 12.5033C67.111 12.1549 66.8994 11.7989 66.6356 11.5199C66.6299 11.5138 66.6243 11.5076 66.6185 11.5013C66.4147 11.2798 66.1879 11.0689 65.9106 10.9456C65.8976 10.9387 65.8846 10.9319 65.8713 10.9249C65.7461 10.8697 65.5857 10.8434 65.456 10.8924C65.4474 10.8953 65.4388 10.8981 65.43 10.9011C65.3104 10.9485 65.2325 11.0591 65.1806 11.1716C65.1007 11.3656 65.0688 11.6146 65.1148 11.8204C65.1175 11.8524 65.1197 11.8842 65.1216 11.9161C65.1287 12.0204 65.1421 12.1229 65.1605 12.2258C65.1621 12.2346 65.1637 12.2434 65.1653 12.2525C65.2446 12.6874 65.3856 13.1119 65.5685 13.5143C65.5801 13.5406 65.5916 13.5669 65.6032 13.5932C65.6956 13.8009 65.7959 14.0053 65.9027 14.206C65.9268 14.2511 65.9505 14.2964 65.9743 14.3417C66.0291 14.4465 66.0847 14.5509 66.1407 14.6551C66.1802 14.7286 66.219 14.8025 66.2576 14.8764C66.2911 14.9406 66.3252 15.0041 66.3615 15.0667C66.4139 15.1577 66.4599 15.2517 66.5067 15.3456C66.5323 15.397 66.5584 15.448 66.585 15.4989C66.6541 15.6316 66.7163 15.767 66.7778 15.9032C66.8002 15.9528 66.8227 16.0023 66.8451 16.0519C66.8689 16.1043 66.8926 16.1567 66.9163 16.2092C66.9377 16.2566 66.9592 16.3039 66.9807 16.3511C66.9914 16.3745 67.0019 16.398 67.0124 16.4214C67.0182 16.4342 67.0241 16.4469 67.0301 16.4601C67.035 16.4709 67.0399 16.4818 67.0449 16.4929C67.0493 16.5005 67.0536 16.5081 67.0581 16.5159C67.0664 16.5173 67.0746 16.5187 67.0832 16.5202C67.1056 16.5046 67.1056 16.5046 67.1298 16.4834C67.1677 16.4519 67.206 16.4226 67.2466 16.3947C67.3034 16.3554 67.3568 16.3131 67.4101 16.2692C67.4235 16.2582 67.4369 16.2471 67.4504 16.2361C67.4812 16.2108 67.5119 16.1855 67.5427 16.1602C67.5735 16.1347 67.6044 16.1095 67.6356 16.0845C67.7224 16.0145 67.8052 15.9417 67.886 15.8649C67.938 15.8154 67.9912 15.7677 68.0454 15.7207C68.2387 15.5523 68.4167 15.3669 68.5937 15.1819C68.5996 15.1757 68.6055 15.1696 68.6116 15.1632C68.7136 15.0561 68.8118 14.9456 68.9092 14.8343C68.915 14.8276 68.9209 14.8209 68.9269 14.814C69.1725 14.5348 69.1725 14.5348 69.3992 14.2403C69.4192 14.2125 69.4396 14.1851 69.4601 14.1577C69.461 14.1565 69.4619 14.1553 69.4628 14.1542C69.5756 14.003 69.6883 13.8508 69.7877 13.6904C69.8091 13.657 69.8321 13.6251 69.8554 13.593C69.9263 13.4918 69.9832 13.3826 70.0422 13.2744C70.0603 13.2416 70.079 13.2092 70.0978 13.1769C70.2151 12.9738 70.3105 12.7602 70.4003 12.544C70.4039 12.5354 70.4075 12.5268 70.4113 12.5179C70.5746 12.1264 70.6737 11.6953 70.6725 11.2708C70.6724 11.2468 70.6724 11.2468 70.6724 11.2223C70.666 11.0129 70.6108 10.8078 70.4715 10.6462C70.4428 10.6204 70.413 10.5993 70.3801 10.5791C70.3691 10.5719 70.3581 10.5647 70.3468 10.5573C70.1165 10.4583 69.8698 10.5974 69.6969 10.7486Z" fill="#EC4899"/>
<path d="M69.6969 10.7486C69.5555 10.8767 69.4338 11.0212 69.3235 11.1763C69.3052 11.202 69.2866 11.2275 69.2681 11.253C69.1807 11.3738 69.1 11.497 69.0262 11.6265L69.0072 11.6598C68.8788 11.8863 68.7712 12.1207 68.6674 12.3591L68.6486 12.4023C68.5803 12.5599 68.5163 12.7191 68.4536 12.879C68.4053 13.0018 68.3555 13.1239 68.3052 13.2458L68.2938 13.2734C68.2499 13.38 68.2049 13.486 68.1576 13.5912C68.15 13.6082 68.1425 13.6252 68.135 13.6422C68.1212 13.6735 68.1074 13.7047 68.0934 13.7359C68.0809 13.764 68.0685 13.7922 68.0562 13.8205C68.0229 13.8956 67.9905 13.9517 67.919 13.9969C67.8572 14.009 67.802 13.9992 67.7422 13.9807C67.6818 13.9397 67.657 13.8916 67.6409 13.8222C67.6345 13.7846 67.6288 13.7469 67.6233 13.7092C67.5677 13.3276 67.4664 12.9341 67.3015 12.5839C67.2897 12.5571 67.278 12.5302 67.2663 12.5033C67.111 12.1549 66.8994 11.7989 66.6356 11.5199L66.6185 11.5013C66.4147 11.2798 66.1879 11.0689 65.9106 10.9456L65.8713 10.9249C65.7461 10.8697 65.5857 10.8434 65.456 10.8924L65.43 10.9011C65.3104 10.9485 65.2325 11.0591 65.1806 11.1716C65.1007 11.3656 65.0688 11.6146 65.1148 11.8204C65.1175 11.8524 65.1197 11.8842 65.1216 11.9161C65.1287 12.0204 65.1421 12.1229 65.1605 12.2258L65.1653 12.2525C65.2446 12.6874 65.3856 13.1119 65.5685 13.5143L65.6032 13.5932C65.6956 13.8009 65.7959 14.0053 65.9027 14.206C65.9268 14.2511 65.9505 14.2964 65.9743 14.3417C66.0291 14.4465 66.0847 14.5509 66.1407 14.6551C66.1802 14.7286 66.219 14.8025 66.2576 14.8764C66.2911 14.9406 66.3252 15.0041 66.3615 15.0667C66.4139 15.1577 66.4599 15.2517 66.5067 15.3456C66.5323 15.397 66.5584 15.448 66.585 15.4989C66.6541 15.6316 66.7163 15.767 66.7778 15.9032L66.8451 16.0519C66.8689 16.1043 66.8926 16.1567 66.9163 16.2092C66.9377 16.2566 66.9592 16.3039 66.9807 16.3511C66.9914 16.3745 67.0019 16.398 67.0124 16.4214L67.0301 16.4601L67.0449 16.4929L67.0581 16.5159L67.0832 16.5202C67.1056 16.5046 67.1056 16.5046 67.1298 16.4834C67.1677 16.4519 67.206 16.4226 67.2466 16.3947C67.3034 16.3554 67.3568 16.3131 67.4101 16.2692L67.4504 16.2361C67.4812 16.2108 67.5119 16.1855 67.5427 16.1602C67.5735 16.1347 67.6044 16.1095 67.6356 16.0845C67.7224 16.0145 67.8052 15.9417 67.886 15.8649C67.938 15.8154 67.9912 15.7677 68.0454 15.7207C68.2387 15.5523 68.4167 15.3669 68.5937 15.1819L68.6116 15.1632C68.7136 15.0561 68.8118 14.9456 68.9092 14.8343L68.9269 14.814C69.1725 14.5348 69.1725 14.5348 69.3992 14.2403C69.4192 14.2125 69.4396 14.1851 69.4601 14.1577L69.4628 14.1542C69.5756 14.003 69.6883 13.8508 69.7877 13.6904C69.8091 13.657 69.8321 13.6251 69.8554 13.593C69.9263 13.4918 69.9832 13.3826 70.0422 13.2744C70.0603 13.2416 70.079 13.2092 70.0978 13.1769C70.2151 12.9738 70.3105 12.7602 70.4003 12.544L70.4113 12.5179C70.5746 12.1264 70.6737 11.6953 70.6725 11.2708L70.6724 11.2223C70.666 11.0129 70.6108 10.8078 70.4715 10.6462C70.4428 10.6204 70.413 10.5993 70.3801 10.5791L70.3468 10.5573C70.1165 10.4583 69.8698 10.5974 69.6969 10.7486Z" fill="#EC4899"/>
</svg>
